<svg width="17" height="17" viewBox="0 0 17 17" fill="none" xmlns="http://www.w3.org/2000/svg">
<g clip-path="url(#clip0_1758_256)">
<rect width="16" height="16" transform="translate(0.871094 0.240234)" fill="#191A1E"/>
<path d="M6.72517 10.3958C6.71594 10.4367 6.70671 10.4775 6.69616 10.5191C6.58078 10.9912 6.3665 11.4177 5.99597 11.7718L5.99465 11.7731C5.99003 11.779 5.98542 11.7837 5.97948 11.7883C5.97487 11.7929 5.97025 11.7975 5.96432 11.8021C5.87201 11.8872 5.7718 11.9676 5.65905 12.0447C5.47972 12.1661 5.27467 12.2768 5.0393 12.3744C3.59407 12.9665 2.06313 12.2696 1.50601 10.914L1.50008 10.8955C0.942953 9.53801 1.52711 7.96225 3.0442 7.33985C3.32968 7.22315 3.6 7.15326 3.8578 7.12425C3.95933 7.11238 4.05955 7.10579 4.15713 7.10777C4.19339 7.10777 4.23031 7.10909 4.26657 7.11238C4.27383 7.11107 4.28306 7.11238 4.29097 7.11238H4.29229C4.30152 7.11238 4.30745 7.1137 4.31668 7.11568C4.69183 7.14271 5.03468 7.26271 5.34786 7.45127C5.38742 7.47435 5.42697 7.49809 5.46456 7.52578H5.46587C5.48895 7.54094 5.51005 7.55611 5.53246 7.57127L5.48697 7.64709L4.73865 8.89188C4.54415 8.77057 4.35756 8.69145 4.16174 8.67167C4.13735 8.66837 4.11164 8.66706 4.08592 8.66706H4.07405C3.96922 8.66376 3.85846 8.67892 3.74308 8.71584C3.70813 8.72771 3.67187 8.74024 3.63495 8.7554C3.09431 8.97694 2.89256 9.61911 3.13255 10.2039L3.1398 10.2224C3.39496 10.8435 3.97779 11.1533 4.54547 10.9193C4.54679 10.9193 4.54679 10.918 4.54876 10.918C4.67337 10.8665 4.77623 10.8026 4.86458 10.7254L4.90084 10.6905L4.90216 10.6892C5.06897 10.525 5.1738 10.3114 5.26215 10.0457L5.36104 10.0701L5.68411 10.1472L6.72385 10.3978L6.72517 10.3958Z" fill="url(#paint0_linear_1758_256)"/>
<path d="M7.02341 7.86553C6.77881 8.90988 7.24956 9.85601 8.20491 10.0795C8.41721 10.1296 8.61303 10.1415 8.80027 10.1217L8.88071 10.1112C9.08576 10.0795 9.27828 10.0109 9.47146 9.90941C9.59871 9.84414 9.72793 9.7637 9.85848 9.67272C9.88881 9.65162 9.91914 9.63052 9.94947 9.60744L10.0556 9.73074L10.4051 10.1316L11.5239 11.4252C11.4751 11.4694 11.425 11.5148 11.3723 11.557C11.2688 11.6454 11.1646 11.7285 11.0565 11.8076C10.9378 11.894 10.8165 11.9744 10.6905 12.0476C10.2732 12.2935 9.81167 12.4636 9.29542 12.5368C9.28355 12.5414 9.27432 12.5427 9.2618 12.5427C9.25125 12.544 9.2407 12.546 9.22817 12.5473C8.71061 12.6126 8.13634 12.581 7.49417 12.432C7.08407 12.335 6.70628 12.1893 6.36146 11.9994C6.72276 11.6276 6.96407 11.1766 7.09923 10.6267C7.1111 10.5813 7.12033 10.5358 7.13088 10.4903L7.21725 10.0973L4.96568 9.58239L4.85162 9.93183C4.79096 10.1158 4.73954 10.2338 4.67097 10.3235C4.4613 9.9437 4.30966 9.53426 4.22461 9.1057C4.32614 9.12548 4.44614 9.16043 4.55888 9.23031L4.89909 9.43668L6.09575 7.4462L5.67379 7.16665C5.65994 7.1561 5.64676 7.14819 5.63291 7.13962L5.59072 7.11061H5.58742C5.57819 7.10599 5.57094 7.10138 5.56171 7.09676C5.2004 6.87787 4.8147 6.7493 4.41713 6.70974C5.14238 4.71663 7.22055 3.47447 9.57695 4.02896C10.2435 4.18522 10.7934 4.43444 11.2397 4.7608C11.2885 4.79442 11.334 4.83069 11.3782 4.86893C11.3901 4.87354 11.4013 4.88409 11.4099 4.892C11.4217 4.89992 11.4296 4.90849 11.4402 4.91904C11.7 5.13463 11.9202 5.37924 12.1008 5.64626C12.1846 5.76296 12.2571 5.88625 12.3223 6.01218C12.3771 6.1091 12.4259 6.2113 12.4694 6.31283C12.4997 6.37942 12.5287 6.44799 12.5531 6.5192L12.5544 6.52052C12.5696 6.56008 12.5834 6.60095 12.5986 6.64051L12.4694 6.69853L10.3391 7.62158C10.3312 7.6018 10.3226 7.58202 10.3134 7.56224C10.2481 7.40862 10.1736 7.2695 10.0899 7.14291C10.0035 7.01237 9.90595 6.89831 9.79255 6.79809C9.76354 6.77238 9.73189 6.74666 9.69826 6.72227L9.69695 6.72095C9.69695 6.72095 9.69365 6.71963 9.69233 6.71765L9.6831 6.71172C9.50706 6.57656 9.29015 6.47964 9.03038 6.41898C8.12118 6.2047 7.26143 6.8515 7.03067 7.83586L7.02275 7.86619L7.02341 7.86553Z" fill="url(#paint1_linear_1758_256)"/>
<path d="M16.4509 9.24659C16.4476 9.83272 16.3191 10.3958 15.9815 10.9166C15.9769 10.9259 15.9723 10.9318 15.9676 10.9397C15.9643 10.9476 15.9604 10.9536 15.9538 10.9608C15.7349 11.2885 15.4329 11.5997 15.0308 11.8944C13.8875 12.7205 12.4831 12.7146 11.4144 12.0566C11.4902 11.9986 11.566 11.9366 11.6405 11.8727C11.6966 11.8272 11.75 11.7784 11.8027 11.7302L12.0869 11.4764L10.6977 9.87294L9.98104 9.06396L9.83203 9.17341C9.83797 8.77848 9.9217 8.38552 10.0793 8.01037L10.1478 8.15476L13.1313 6.86118L12.9321 6.33438C12.9091 6.27373 12.8834 6.20977 12.853 6.14318C12.8194 6.06736 12.7845 5.99154 12.7482 5.91704C13.1761 5.85308 13.5941 5.90055 13.9963 6.02648C14.0497 6.04165 14.1011 6.05813 14.1545 6.07989H14.1558C14.1875 6.09176 14.2165 6.10428 14.2468 6.11483L14.2152 6.21834L13.6897 7.89169C13.4273 7.80334 13.186 7.76444 12.9506 7.79609C12.9216 7.79939 12.8899 7.804 12.8596 7.81257H12.8583C12.8583 7.81257 12.857 7.81257 12.855 7.81389L12.8458 7.81521C12.6816 7.85016 12.5181 7.92466 12.3552 8.04268C11.783 8.45541 11.7282 9.26769 12.1746 9.88415L12.1898 9.90393C12.6651 10.5613 13.4378 10.7604 14.0378 10.3246C14.1717 10.229 14.2765 10.1208 14.3582 10.0055L14.3899 9.95536C14.5415 9.71405 14.6042 9.43318 14.6312 9.09429H15.1547L16.447 9.09297C16.4483 9.1444 16.4503 9.1945 16.4503 9.24659H16.4509Z" fill="url(#paint2_linear_1758_256)"/>
</g>
<defs>
<linearGradient id="paint0_linear_1758_256" x1="0.524946" y1="9.84658" x2="16.1462" y2="9.84658" gradientUnits="userSpaceOnUse">
<stop stop-color="#04E95F"/>
<stop offset="1" stop-color="#007BEA"/>
</linearGradient>
<linearGradient id="paint1_linear_1758_256" x1="0.522541" y1="8.23738" x2="16.1438" y2="8.23738" gradientUnits="userSpaceOnUse">
<stop stop-color="#04E95F"/>
<stop offset="1" stop-color="#007BEA"/>
</linearGradient>
<linearGradient id="paint2_linear_1758_256" x1="0.523123" y1="9.21099" x2="16.1443" y2="9.21099" gradientUnits="userSpaceOnUse">
<stop stop-color="#04E95F"/>
<stop offset="1" stop-color="#007BEA"/>
</linearGradient>
<clipPath id="clip0_1758_256">
<rect width="16" height="16" fill="white" transform="translate(0.871094 0.240234)"/>
</clipPath>
</defs>
</svg>
