<svg width="47" height="49" viewBox="0 0 47 49" fill="none" xmlns="http://www.w3.org/2000/svg">
<mask id="mask0_714_1099" style="mask-type:luminance" maskUnits="userSpaceOnUse" x="0" y="0" width="47" height="17">
<path d="M46.5839 7.05118L36.0443 0.148903C35.7589 -0.0348997 35.3961 -0.0494104 35.1011 0.110208C34.806 0.269826 34.6174 0.579388 34.6174 0.917972V4.15387C32.2618 3.9749 26.3027 4.16838 17.8043 8.94725C7.9515 14.4855 1.94406 5.36309 1.69738 4.9713C1.44102 4.57468 0.933147 4.43441 0.512336 4.64239C0.0915245 4.85038 -0.106789 5.34375 0.0576661 5.78391C0.164078 6.07412 2.73731 12.8893 8.78345 15.4094C10.2394 16.0188 11.7678 16.3187 13.3592 16.3187C15.4342 16.3187 17.6205 15.8011 19.8938 14.766C25.969 11.9945 31.0429 10.7466 34.6174 11.1287V14.1324C34.6174 14.4662 34.7964 14.7709 35.0866 14.9353C35.372 15.095 35.7251 15.095 36.0104 14.9208L46.5501 8.60866C46.8258 8.44421 46.9902 8.15399 46.9999 7.83959C47.0047 7.52036 46.8451 7.22531 46.5839 7.05118ZM36.4603 12.512V10.3258C36.4603 9.82756 36.0975 9.42126 35.6041 9.40675C35.5703 9.40675 35.5267 9.39708 35.4687 9.3874C30.4673 8.57964 23.8214 10.9546 19.1344 13.0925C15.6083 14.6983 12.3724 14.9063 9.49932 13.7164C7.88379 13.0441 6.53429 11.9897 5.44115 10.8482C8.63835 12.6862 13.1657 13.6632 18.7088 10.5483C28.9582 4.78266 35.2752 6.08379 35.3333 6.09347C35.6041 6.15635 35.8943 6.09347 36.112 5.91934C36.3297 5.74037 36.4603 5.47918 36.4603 5.19864V2.61573L44.3493 7.78639L36.4603 12.512Z" fill="white"/>
</mask>
<g mask="url(#mask0_714_1099)">
<path d="M5.74564 2.61572H5.44092V14.9063H5.74564V2.61572Z" fill="#04DC6F"/>
<path d="M6.08468 2.61572H5.74609V14.9063H6.08468V2.61572Z" fill="#04DB70"/>
<path d="M6.42306 2.61572H6.08447V14.9063H6.42306V2.61572Z" fill="#03DB71"/>
<path d="M6.76144 2.61572H6.42285V14.9063H6.76144V2.61572Z" fill="#03DA72"/>
<path d="M7.1003 2.61572H6.76172V14.9063H7.1003V2.61572Z" fill="#03D973"/>
<path d="M7.43917 2.61572H7.10059V14.9063H7.43917V2.61572Z" fill="#03D874"/>
<path d="M7.77706 2.61572H7.43848V14.9063H7.77706V2.61572Z" fill="#03D775"/>
<path d="M8.11593 2.61572H7.77734V14.9063H8.11593V2.61572Z" fill="#03D776"/>
<path d="M8.45431 2.61572H8.11572V14.9063H8.45431V2.61572Z" fill="#03D677"/>
<path d="M8.79317 2.61572H8.45459V14.9063H8.79317V2.61572Z" fill="#03D578"/>
<path d="M9.13204 2.61572H8.79346V14.9063H9.13204V2.61572Z" fill="#03D479"/>
<path d="M9.47042 2.61572H9.13184V14.9063H9.47042V2.61572Z" fill="#03D37A"/>
<path d="M9.8044 2.61572H9.46582V14.9063H9.8044V2.61572Z" fill="#03D37B"/>
<path d="M10.1423 2.61572H9.80371V14.9063H10.1423V2.61572Z" fill="#03D27C"/>
<path d="M10.4816 2.61572H10.1431V14.9063H10.4816V2.61572Z" fill="#03D17D"/>
<path d="M10.8195 2.61572H10.481V14.9063H10.8195V2.61572Z" fill="#03D07E"/>
<path d="M11.1584 2.61572H10.8198V14.9063H11.1584V2.61572Z" fill="#03CF7F"/>
<path d="M11.4968 2.61572H11.1582V14.9063H11.4968V2.61572Z" fill="#03CF80"/>
<path d="M11.8357 2.61572H11.4971V14.9063H11.8357V2.61572Z" fill="#03CE81"/>
<path d="M12.174 2.61572H11.8354V14.9063H12.174V2.61572Z" fill="#03CD82"/>
<path d="M12.5129 2.61572H12.1743V14.9063H12.5129V2.61572Z" fill="#03CC83"/>
<path d="M12.8513 2.61572H12.5127V14.9063H12.8513V2.61572Z" fill="#03CC84"/>
<path d="M13.1897 2.61572H12.8511V14.9063H13.1897V2.61572Z" fill="#03CB85"/>
<path d="M13.5236 2.61572H13.1851V14.9063H13.5236V2.61572Z" fill="#03CA86"/>
<path d="M13.8625 2.61572H13.5239V14.9063H13.8625V2.61572Z" fill="#03C987"/>
<path d="M14.2009 2.61572H13.8623V14.9063H14.2009V2.61572Z" fill="#03C888"/>
<path d="M14.5398 2.61572H14.2012V14.9063H14.5398V2.61572Z" fill="#03C889"/>
<path d="M14.8781 2.61572H14.5396V14.9063H14.8781V2.61572Z" fill="#03C78A"/>
<path d="M15.2165 2.61572H14.8779V14.9063H15.2165V2.61572Z" fill="#03C68B"/>
<path d="M15.5554 2.61572H15.2168V14.9063H15.5554V2.61572Z" fill="#03C58C"/>
<path d="M15.8938 2.61572H15.5552V14.9063H15.8938V2.61572Z" fill="#03C48D"/>
<path d="M16.2326 2.61572H15.894V14.9063H16.2326V2.61572Z" fill="#03C48E"/>
<path d="M16.5705 2.61572H16.2319V14.9063H16.5705V2.61572Z" fill="#03C38F"/>
<path d="M16.905 2.61572H16.5664V14.9063H16.905V2.61572Z" fill="#03C290"/>
<path d="M17.2434 2.61572H16.9048V14.9063H17.2434V2.61572Z" fill="#03C191"/>
<path d="M17.5817 2.61572H17.2432V14.9063H17.5817V2.61572Z" fill="#03C092"/>
<path d="M17.9206 2.61572H17.582V14.9063H17.9206V2.61572Z" fill="#02C093"/>
<path d="M18.259 2.61572H17.9204V14.9063H18.259V2.61572Z" fill="#02BF94"/>
<path d="M18.5974 2.61572H18.2588V14.9063H18.5974V2.61572Z" fill="#02BE95"/>
<path d="M18.9362 2.61572H18.5977V14.9063H18.9362V2.61572Z" fill="#02BD96"/>
<path d="M19.2746 2.61572H18.936V14.9063H19.2746V2.61572Z" fill="#02BC97"/>
<path d="M19.6135 2.61572H19.2749V14.9063H19.6135V2.61572Z" fill="#02BC98"/>
<path d="M19.9519 2.61572H19.6133V14.9063H19.9519V2.61572Z" fill="#02BB99"/>
<path d="M20.2907 2.61572H19.9521V14.9063H20.2907V2.61572Z" fill="#02BA9A"/>
<path d="M20.6242 2.61572H20.2856V14.9063H20.6242V2.61572Z" fill="#02B99B"/>
<path d="M20.9631 2.61572H20.6245V14.9063H20.9631V2.61572Z" fill="#02B89C"/>
<path d="M21.3015 2.61572H20.9629V14.9063H21.3015V2.61572Z" fill="#02B89D"/>
<path d="M21.6399 2.61572H21.3013V14.9063H21.6399V2.61572Z" fill="#02B79E"/>
<path d="M21.9782 2.61572H21.6396V14.9063H21.9782V2.61572Z" fill="#02B69F"/>
<path d="M22.3171 2.61572H21.9785V14.9063H22.3171V2.61572Z" fill="#02B5A0"/>
<path d="M22.656 2.61572H22.3174V14.9063H22.656V2.61572Z" fill="#02B4A1"/>
<path d="M22.9943 2.61572H22.6558V14.9063H22.9943V2.61572Z" fill="#02B4A2"/>
<path d="M23.3332 2.61572H22.9946V14.9063H23.3332V2.61572Z" fill="#02B3A3"/>
<path d="M23.6711 2.61572H23.3325V14.9063H23.6711V2.61572Z" fill="#02B2A5"/>
<path d="M24.0046 2.61572H23.666V14.9063H24.0046V2.61572Z" fill="#02B1A6"/>
<path d="M24.344 2.61572H24.0054V14.9063H24.344V2.61572Z" fill="#02B0A7"/>
<path d="M24.6823 2.61572H24.3438V14.9063H24.6823V2.61572Z" fill="#02B0A8"/>
<path d="M25.0212 2.61572H24.6826V14.9063H25.0212V2.61572Z" fill="#02AFA9"/>
<path d="M25.3596 2.61572H25.021V14.9063H25.3596V2.61572Z" fill="#02AEAA"/>
<path d="M25.6984 2.61572H25.3599V14.9063H25.6984V2.61572Z" fill="#02ADAB"/>
<path d="M26.0368 2.61572H25.6982V14.9063H26.0368V2.61572Z" fill="#02ACAC"/>
<path d="M26.3752 2.61572H26.0366V14.9063H26.3752V2.61572Z" fill="#02ACAD"/>
<path d="M26.7141 2.61572H26.3755V14.9063H26.7141V2.61572Z" fill="#02ABAE"/>
<path d="M27.0525 2.61572H26.7139V14.9063H27.0525V2.61572Z" fill="#02AAAF"/>
<path d="M27.3913 2.61572H27.0527V14.9063H27.3913V2.61572Z" fill="#02A9B0"/>
<path d="M27.7248 2.61572H27.3862V14.9063H27.7248V2.61572Z" fill="#02A8B1"/>
<path d="M28.0632 2.61572H27.7246V14.9063H28.0632V2.61572Z" fill="#02A8B2"/>
<path d="M28.4025 2.61572H28.064V14.9063H28.4025V2.61572Z" fill="#02A7B3"/>
<path d="M28.7404 2.61572H28.4019V14.9063H28.7404V2.61572Z" fill="#02A6B4"/>
<path d="M29.0793 2.61572H28.7407V14.9063H29.0793V2.61572Z" fill="#02A5B5"/>
<path d="M29.4177 2.61572H29.0791V14.9063H29.4177V2.61572Z" fill="#02A4B6"/>
<path d="M29.7566 2.61572H29.418V14.9063H29.7566V2.61572Z" fill="#01A4B7"/>
<path d="M30.0949 2.61572H29.7563V14.9063H30.0949V2.61572Z" fill="#01A3B8"/>
<path d="M30.4333 2.61572H30.0947V14.9063H30.4333V2.61572Z" fill="#01A2B9"/>
<path d="M30.7722 2.61572H30.4336V14.9063H30.7722V2.61572Z" fill="#01A1BA"/>
<path d="M31.1106 2.61572H30.772V14.9063H31.1106V2.61572Z" fill="#01A0BB"/>
<path d="M31.4441 2.61572H31.1055V14.9063H31.4441V2.61572Z" fill="#01A0BC"/>
<path d="M31.7834 2.61572H31.4448V14.9063H31.7834V2.61572Z" fill="#019FBD"/>
<path d="M32.1218 2.61572H31.7832V14.9063H32.1218V2.61572Z" fill="#019EBE"/>
<path d="M32.4602 2.61572H32.1216V14.9063H32.4602V2.61572Z" fill="#019DBF"/>
<path d="M32.7985 2.61572H32.46V14.9063H32.7985V2.61572Z" fill="#019CC0"/>
<path d="M33.1374 2.61572H32.7988V14.9063H33.1374V2.61572Z" fill="#019CC1"/>
<path d="M33.4758 2.61572H33.1372V14.9063H33.4758V2.61572Z" fill="#019BC2"/>
<path d="M33.8147 2.61572H33.4761V14.9063H33.8147V2.61572Z" fill="#019AC3"/>
<path d="M34.153 2.61572H33.8145V14.9063H34.153V2.61572Z" fill="#0199C4"/>
<path d="M34.4914 2.61572H34.1528V14.9063H34.4914V2.61572Z" fill="#0198C5"/>
<path d="M34.8259 2.61572H34.4873V14.9063H34.8259V2.61572Z" fill="#0198C6"/>
<path d="M35.1643 2.61572H34.8257V14.9063H35.1643V2.61572Z" fill="#0197C7"/>
<path d="M35.5022 2.61572H35.1636V14.9063H35.5022V2.61572Z" fill="#0196C8"/>
<path d="M35.8415 2.61572H35.5029V14.9063H35.8415V2.61572Z" fill="#0195C9"/>
<path d="M36.1799 2.61572H35.8413V14.9063H36.1799V2.61572Z" fill="#0195CA"/>
<path d="M36.5183 2.61572H36.1797V14.9063H36.5183V2.61572Z" fill="#0194CB"/>
<path d="M36.8571 2.61572H36.5186V14.9063H36.8571V2.61572Z" fill="#0193CC"/>
<path d="M37.1955 2.61572H36.8569V14.9063H37.1955V2.61572Z" fill="#0192CD"/>
<path d="M37.5344 2.61572H37.1958V14.9063H37.5344V2.61572Z" fill="#0191CE"/>
<path d="M37.8728 2.61572H37.5342V14.9063H37.8728V2.61572Z" fill="#0191CF"/>
<path d="M38.2116 2.61572H37.873V14.9063H38.2116V2.61572Z" fill="#0190D0"/>
<path d="M38.5446 2.61572H38.2061V14.9063H38.5446V2.61572Z" fill="#018FD1"/>
<path d="M38.884 2.61572H38.5454V14.9063H38.884V2.61572Z" fill="#018ED2"/>
<path d="M39.2224 2.61572H38.8838V14.9063H39.2224V2.61572Z" fill="#018DD3"/>
<path d="M39.5608 2.61572H39.2222V14.9063H39.5608V2.61572Z" fill="#018DD4"/>
<path d="M39.8991 2.61572H39.5605V14.9063H39.8991V2.61572Z" fill="#018CD5"/>
<path d="M40.238 2.61572H39.8994V14.9063H40.238V2.61572Z" fill="#018BD6"/>
<path d="M40.5764 2.61572H40.2378V14.9063H40.5764V2.61572Z" fill="#018AD7"/>
<path d="M40.9152 2.61572H40.5767V14.9063H40.9152V2.61572Z" fill="#0189D8"/>
<path d="M41.2541 2.61572H40.9155V14.9063H41.2541V2.61572Z" fill="#0089D9"/>
<path d="M41.5925 2.61572H41.2539V14.9063H41.5925V2.61572Z" fill="#0088DA"/>
<path d="M41.9309 2.61572H41.5923V14.9063H41.9309V2.61572Z" fill="#0087DB"/>
<path d="M42.2649 2.61572H41.9263V14.9063H42.2649V2.61572Z" fill="#0086DC"/>
<path d="M42.6032 2.61572H42.2646V14.9063H42.6032V2.61572Z" fill="#0085DD"/>
<path d="M42.9416 2.61572H42.603V14.9063H42.9416V2.61572Z" fill="#0085DE"/>
<path d="M43.2805 2.61572H42.9419V14.9063H43.2805V2.61572Z" fill="#0084DF"/>
<path d="M43.6189 2.61572H43.2803V14.9063H43.6189V2.61572Z" fill="#0083E0"/>
<path d="M43.9577 2.61572H43.6191V14.9063H43.9577V2.61572Z" fill="#0082E1"/>
<path d="M44.2961 2.61572H43.9575V14.9063H44.2961V2.61572Z" fill="#0081E2"/>
<path d="M44.3496 2.61572H44.2964V14.9063H44.3496V2.61572Z" fill="#0081E3"/>
<path d="M0.338096 -0.0493164H-0.000488281V16.3188H0.338096V-0.0493164Z" fill="#04E95F"/>
<path d="M0.677451 -0.0493164H0.338867V16.3188H0.677451V-0.0493164Z" fill="#04E860"/>
<path d="M1.01583 -0.0493164H0.677246V16.3188H1.01583V-0.0493164Z" fill="#04E761"/>
<path d="M1.35372 -0.0493164H1.01514V16.3188H1.35372V-0.0493164Z" fill="#04E762"/>
<path d="M1.69259 -0.0493164H1.354V16.3188H1.69259V-0.0493164Z" fill="#04E663"/>
<path d="M2.03145 -0.0493164H1.69287V16.3188H2.03145V-0.0493164Z" fill="#04E564"/>
<path d="M2.36983 -0.0493164H2.03125V16.3188H2.36983V-0.0493164Z" fill="#04E465"/>
<path d="M2.70382 -0.0493164H2.36523V16.3188H2.70382V-0.0493164Z" fill="#04E366"/>
<path d="M3.0422 -0.0493164H2.70361V16.3188H3.0422V-0.0493164Z" fill="#04E367"/>
<path d="M3.38058 -0.0493164H3.04199V16.3188H3.38058V-0.0493164Z" fill="#04E268"/>
<path d="M3.71895 -0.0493164H3.38037V16.3188H3.71895V-0.0493164Z" fill="#04E169"/>
<path d="M4.05831 -0.0493164H3.71973V16.3188H4.05831V-0.0493164Z" fill="#04E06A"/>
<path d="M4.3962 -0.0493164H4.05762V16.3188H4.3962V-0.0493164Z" fill="#04DF6B"/>
<path d="M4.73507 -0.0493164H4.39648V16.3188H4.73507V-0.0493164Z" fill="#04DF6C"/>
<path d="M5.07345 -0.0493164H4.73486V16.3188H5.07345V-0.0493164Z" fill="#04DE6D"/>
<path d="M5.41231 -0.0493164H5.07373V16.3188H5.41231V-0.0493164Z" fill="#04DD6E"/>
<path d="M5.7502 -0.0493164H5.41162V16.3188H5.7502V-0.0493164Z" fill="#04DC6F"/>
<path d="M6.08468 -0.0493164H5.74609V16.3188H6.08468V-0.0493164Z" fill="#04DB70"/>
<path d="M6.42306 -0.0493164H6.08447V16.3188H6.42306V-0.0493164Z" fill="#03DB71"/>
<path d="M6.76144 -0.0493164H6.42285V16.3188H6.76144V-0.0493164Z" fill="#03DA72"/>
<path d="M7.1003 -0.0493164H6.76172V16.3188H7.1003V-0.0493164Z" fill="#03D973"/>
<path d="M7.43917 -0.0493164H7.10059V16.3188H7.43917V-0.0493164Z" fill="#03D874"/>
<path d="M7.77706 -0.0493164H7.43848V16.3188H7.77706V-0.0493164Z" fill="#03D775"/>
<path d="M8.11593 -0.0493164H7.77734V16.3188H8.11593V-0.0493164Z" fill="#03D776"/>
<path d="M8.45431 -0.0493164H8.11572V16.3188H8.45431V-0.0493164Z" fill="#03D677"/>
<path d="M8.79317 -0.0493164H8.45459V16.3188H8.79317V-0.0493164Z" fill="#03D578"/>
<path d="M9.13204 -0.0493164H8.79346V16.3188H9.13204V-0.0493164Z" fill="#03D479"/>
<path d="M9.47042 -0.0493164H9.13184V16.3188H9.47042V-0.0493164Z" fill="#03D37A"/>
<path d="M9.8044 -0.0493164H9.46582V16.3188H9.8044V-0.0493164Z" fill="#03D37B"/>
<path d="M10.1423 -0.0493164H9.80371V16.3188H10.1423V-0.0493164Z" fill="#03D27C"/>
<path d="M10.4816 -0.0493164H10.1431V16.3188H10.4816V-0.0493164Z" fill="#03D17D"/>
<path d="M10.8195 -0.0493164H10.481V16.3188H10.8195V-0.0493164Z" fill="#03D07E"/>
<path d="M11.1584 -0.0493164H10.8198V16.3188H11.1584V-0.0493164Z" fill="#03CF7F"/>
<path d="M11.4968 -0.0493164H11.1582V16.3188H11.4968V-0.0493164Z" fill="#03CF80"/>
<path d="M11.8357 -0.0493164H11.4971V16.3188H11.8357V-0.0493164Z" fill="#03CE81"/>
<path d="M12.174 -0.0493164H11.8354V16.3188H12.174V-0.0493164Z" fill="#03CD82"/>
<path d="M12.5129 -0.0493164H12.1743V16.3188H12.5129V-0.0493164Z" fill="#03CC83"/>
<path d="M12.8513 -0.0493164H12.5127V16.3188H12.8513V-0.0493164Z" fill="#03CC84"/>
<path d="M13.1897 -0.0493164H12.8511V16.3188H13.1897V-0.0493164Z" fill="#03CB85"/>
<path d="M13.5236 -0.0493164H13.1851V16.3188H13.5236V-0.0493164Z" fill="#03CA86"/>
<path d="M13.8625 -0.0493164H13.5239V16.3188H13.8625V-0.0493164Z" fill="#03C987"/>
<path d="M14.2009 -0.0493164H13.8623V16.3188H14.2009V-0.0493164Z" fill="#03C888"/>
<path d="M14.5398 -0.0493164H14.2012V16.3188H14.5398V-0.0493164Z" fill="#03C889"/>
<path d="M14.8781 -0.0493164H14.5396V16.3188H14.8781V-0.0493164Z" fill="#03C78A"/>
<path d="M15.2165 -0.0493164H14.8779V16.3188H15.2165V-0.0493164Z" fill="#03C68B"/>
<path d="M15.5554 -0.0493164H15.2168V16.3188H15.5554V-0.0493164Z" fill="#03C58C"/>
<path d="M15.8938 -0.0493164H15.5552V16.3188H15.8938V-0.0493164Z" fill="#03C48D"/>
<path d="M16.2326 -0.0493164H15.894V16.3188H16.2326V-0.0493164Z" fill="#03C48E"/>
<path d="M16.5705 -0.0493164H16.2319V16.3188H16.5705V-0.0493164Z" fill="#03C38F"/>
<path d="M16.905 -0.0493164H16.5664V16.3188H16.905V-0.0493164Z" fill="#03C290"/>
<path d="M17.2434 -0.0493164H16.9048V16.3188H17.2434V-0.0493164Z" fill="#03C191"/>
<path d="M17.5817 -0.0493164H17.2432V16.3188H17.5817V-0.0493164Z" fill="#03C092"/>
<path d="M17.9206 -0.0493164H17.582V16.3188H17.9206V-0.0493164Z" fill="#02C093"/>
<path d="M18.259 -0.0493164H17.9204V16.3188H18.259V-0.0493164Z" fill="#02BF94"/>
<path d="M18.5974 -0.0493164H18.2588V16.3188H18.5974V-0.0493164Z" fill="#02BE95"/>
<path d="M18.9362 -0.0493164H18.5977V16.3188H18.9362V-0.0493164Z" fill="#02BD96"/>
<path d="M19.2746 -0.0493164H18.936V16.3188H19.2746V-0.0493164Z" fill="#02BC97"/>
<path d="M19.6135 -0.0493164H19.2749V16.3188H19.6135V-0.0493164Z" fill="#02BC98"/>
<path d="M19.9519 -0.0493164H19.6133V16.3188H19.9519V-0.0493164Z" fill="#02BB99"/>
<path d="M20.2907 -0.0493164H19.9521V16.3188H20.2907V-0.0493164Z" fill="#02BA9A"/>
<path d="M20.6242 -0.0493164H20.2856V16.3188H20.6242V-0.0493164Z" fill="#02B99B"/>
<path d="M20.9631 -0.0493164H20.6245V16.3188H20.9631V-0.0493164Z" fill="#02B89C"/>
<path d="M21.3015 -0.0493164H20.9629V16.3188H21.3015V-0.0493164Z" fill="#02B89D"/>
<path d="M21.6399 -0.0493164H21.3013V16.3188H21.6399V-0.0493164Z" fill="#02B79E"/>
<path d="M21.9782 -0.0493164H21.6396V16.3188H21.9782V-0.0493164Z" fill="#02B69F"/>
<path d="M22.3171 -0.0493164H21.9785V16.3188H22.3171V-0.0493164Z" fill="#02B5A0"/>
<path d="M22.656 -0.0493164H22.3174V16.3188H22.656V-0.0493164Z" fill="#02B4A1"/>
<path d="M22.9943 -0.0493164H22.6558V16.3188H22.9943V-0.0493164Z" fill="#02B4A2"/>
<path d="M23.3332 -0.0493164H22.9946V16.3188H23.3332V-0.0493164Z" fill="#02B3A3"/>
<path d="M23.6711 -0.0493164H23.3325V16.3188H23.6711V-0.0493164Z" fill="#02B2A5"/>
<path d="M24.0046 -0.0493164H23.666V16.3188H24.0046V-0.0493164Z" fill="#02B1A6"/>
<path d="M24.344 -0.0493164H24.0054V16.3188H24.344V-0.0493164Z" fill="#02B0A7"/>
<path d="M24.6823 -0.0493164H24.3438V16.3188H24.6823V-0.0493164Z" fill="#02B0A8"/>
<path d="M25.0212 -0.0493164H24.6826V16.3188H25.0212V-0.0493164Z" fill="#02AFA9"/>
<path d="M25.3596 -0.0493164H25.021V16.3188H25.3596V-0.0493164Z" fill="#02AEAA"/>
<path d="M25.6984 -0.0493164H25.3599V16.3188H25.6984V-0.0493164Z" fill="#02ADAB"/>
<path d="M26.0368 -0.0493164H25.6982V16.3188H26.0368V-0.0493164Z" fill="#02ACAC"/>
<path d="M26.3752 -0.0493164H26.0366V16.3188H26.3752V-0.0493164Z" fill="#02ACAD"/>
<path d="M26.7141 -0.0493164H26.3755V16.3188H26.7141V-0.0493164Z" fill="#02ABAE"/>
<path d="M27.0525 -0.0493164H26.7139V16.3188H27.0525V-0.0493164Z" fill="#02AAAF"/>
<path d="M27.3913 -0.0493164H27.0527V16.3188H27.3913V-0.0493164Z" fill="#02A9B0"/>
<path d="M27.7248 -0.0493164H27.3862V16.3188H27.7248V-0.0493164Z" fill="#02A8B1"/>
<path d="M28.0632 -0.0493164H27.7246V16.3188H28.0632V-0.0493164Z" fill="#02A8B2"/>
<path d="M28.4025 -0.0493164H28.064V16.3188H28.4025V-0.0493164Z" fill="#02A7B3"/>
<path d="M28.7404 -0.0493164H28.4019V16.3188H28.7404V-0.0493164Z" fill="#02A6B4"/>
<path d="M29.0793 -0.0493164H28.7407V16.3188H29.0793V-0.0493164Z" fill="#02A5B5"/>
<path d="M29.4177 -0.0493164H29.0791V16.3188H29.4177V-0.0493164Z" fill="#02A4B6"/>
<path d="M29.7566 -0.0493164H29.418V16.3188H29.7566V-0.0493164Z" fill="#01A4B7"/>
<path d="M30.0949 -0.0493164H29.7563V16.3188H30.0949V-0.0493164Z" fill="#01A3B8"/>
<path d="M30.4333 -0.0493164H30.0947V16.3188H30.4333V-0.0493164Z" fill="#01A2B9"/>
<path d="M30.7722 -0.0493164H30.4336V16.3188H30.7722V-0.0493164Z" fill="#01A1BA"/>
<path d="M31.1106 -0.0493164H30.772V16.3188H31.1106V-0.0493164Z" fill="#01A0BB"/>
<path d="M31.4441 -0.0493164H31.1055V16.3188H31.4441V-0.0493164Z" fill="#01A0BC"/>
<path d="M31.7834 -0.0493164H31.4448V16.3188H31.7834V-0.0493164Z" fill="#019FBD"/>
<path d="M32.1218 -0.0493164H31.7832V16.3188H32.1218V-0.0493164Z" fill="#019EBE"/>
<path d="M32.4602 -0.0493164H32.1216V16.3188H32.4602V-0.0493164Z" fill="#019DBF"/>
<path d="M32.7985 -0.0493164H32.46V16.3188H32.7985V-0.0493164Z" fill="#019CC0"/>
<path d="M33.1374 -0.0493164H32.7988V16.3188H33.1374V-0.0493164Z" fill="#019CC1"/>
<path d="M33.4758 -0.0493164H33.1372V16.3188H33.4758V-0.0493164Z" fill="#019BC2"/>
<path d="M33.8147 -0.0493164H33.4761V16.3188H33.8147V-0.0493164Z" fill="#019AC3"/>
<path d="M34.153 -0.0493164H33.8145V16.3188H34.153V-0.0493164Z" fill="#0199C4"/>
<path d="M34.4914 -0.0493164H34.1528V16.3188H34.4914V-0.0493164Z" fill="#0198C5"/>
<path d="M34.8259 -0.0493164H34.4873V16.3188H34.8259V-0.0493164Z" fill="#0198C6"/>
<path d="M35.1643 -0.0493164H34.8257V16.3188H35.1643V-0.0493164Z" fill="#0197C7"/>
<path d="M35.5022 -0.0493164H35.1636V16.3188H35.5022V-0.0493164Z" fill="#0196C8"/>
<path d="M35.8415 -0.0493164H35.5029V16.3188H35.8415V-0.0493164Z" fill="#0195C9"/>
<path d="M36.1799 -0.0493164H35.8413V16.3188H36.1799V-0.0493164Z" fill="#0195CA"/>
<path d="M36.5183 -0.0493164H36.1797V16.3188H36.5183V-0.0493164Z" fill="#0194CB"/>
<path d="M36.8571 -0.0493164H36.5186V16.3188H36.8571V-0.0493164Z" fill="#0193CC"/>
<path d="M37.1955 -0.0493164H36.8569V16.3188H37.1955V-0.0493164Z" fill="#0192CD"/>
<path d="M37.5344 -0.0493164H37.1958V16.3188H37.5344V-0.0493164Z" fill="#0191CE"/>
<path d="M37.8728 -0.0493164H37.5342V16.3188H37.8728V-0.0493164Z" fill="#0191CF"/>
<path d="M38.2116 -0.0493164H37.873V16.3188H38.2116V-0.0493164Z" fill="#0190D0"/>
<path d="M38.5446 -0.0493164H38.2061V16.3188H38.5446V-0.0493164Z" fill="#018FD1"/>
<path d="M38.884 -0.0493164H38.5454V16.3188H38.884V-0.0493164Z" fill="#018ED2"/>
<path d="M39.2224 -0.0493164H38.8838V16.3188H39.2224V-0.0493164Z" fill="#018DD3"/>
<path d="M39.5608 -0.0493164H39.2222V16.3188H39.5608V-0.0493164Z" fill="#018DD4"/>
<path d="M39.8991 -0.0493164H39.5605V16.3188H39.8991V-0.0493164Z" fill="#018CD5"/>
<path d="M40.238 -0.0493164H39.8994V16.3188H40.238V-0.0493164Z" fill="#018BD6"/>
<path d="M40.5764 -0.0493164H40.2378V16.3188H40.5764V-0.0493164Z" fill="#018AD7"/>
<path d="M40.9152 -0.0493164H40.5767V16.3188H40.9152V-0.0493164Z" fill="#0189D8"/>
<path d="M41.2541 -0.0493164H40.9155V16.3188H41.2541V-0.0493164Z" fill="#0089D9"/>
<path d="M41.5925 -0.0493164H41.2539V16.3188H41.5925V-0.0493164Z" fill="#0088DA"/>
<path d="M41.9309 -0.0493164H41.5923V16.3188H41.9309V-0.0493164Z" fill="#0087DB"/>
<path d="M42.2649 -0.0493164H41.9263V16.3188H42.2649V-0.0493164Z" fill="#0086DC"/>
<path d="M42.6032 -0.0493164H42.2646V16.3188H42.6032V-0.0493164Z" fill="#0085DD"/>
<path d="M42.9416 -0.0493164H42.603V16.3188H42.9416V-0.0493164Z" fill="#0085DE"/>
<path d="M43.2805 -0.0493164H42.9419V16.3188H43.2805V-0.0493164Z" fill="#0084DF"/>
<path d="M43.6189 -0.0493164H43.2803V16.3188H43.6189V-0.0493164Z" fill="#0083E0"/>
<path d="M43.9577 -0.0493164H43.6191V16.3188H43.9577V-0.0493164Z" fill="#0082E1"/>
<path d="M44.2961 -0.0493164H43.9575V16.3188H44.2961V-0.0493164Z" fill="#0081E2"/>
<path d="M44.635 -0.0493164H44.2964V16.3188H44.635V-0.0493164Z" fill="#0081E3"/>
<path d="M44.9733 -0.0493164H44.6348V16.3188H44.9733V-0.0493164Z" fill="#0080E4"/>
<path d="M45.3122 -0.0493164H44.9736V16.3188H45.3122V-0.0493164Z" fill="#007FE5"/>
<path d="M45.6457 -0.0493164H45.3071V16.3188H45.6457V-0.0493164Z" fill="#007EE6"/>
<path d="M45.9841 -0.0493164H45.6455V16.3188H45.9841V-0.0493164Z" fill="#007DE7"/>
<path d="M46.3234 -0.0493164H45.9849V16.3188H46.3234V-0.0493164Z" fill="#007DE8"/>
<path d="M46.6613 -0.0493164H46.3228V16.3188H46.6613V-0.0493164Z" fill="#007CE9"/>
<path d="M46.9997 -0.0493164H46.6611V16.3188H46.9997V-0.0493164Z" fill="#007BEA"/>
</g>
<mask id="mask1_714_1099" style="mask-type:luminance" maskUnits="userSpaceOnUse" x="0" y="16" width="47" height="17">
<path d="M46.5839 23.371L36.0443 16.4687C35.7589 16.2849 35.3961 16.2704 35.1011 16.43C34.806 16.5896 34.6174 16.8992 34.6174 17.2378V20.4737C32.2618 20.2947 26.3027 20.4882 17.8043 25.2671C7.9515 30.8053 1.94406 21.6829 1.69738 21.2911C1.44102 20.8945 0.933147 20.7542 0.512336 20.9622C0.0915245 21.1702 -0.106789 21.6636 0.0576661 22.1037C0.164078 22.3939 2.73731 29.2092 8.78345 31.7292C10.2394 32.3386 11.7678 32.6385 13.3592 32.6385C15.4342 32.6385 17.6205 32.121 19.8938 31.0859C25.969 28.3143 31.0429 27.0664 34.6174 27.4485V30.4522C34.6174 30.786 34.7964 31.0907 35.0866 31.2552C35.372 31.4148 35.7251 31.4148 36.0104 31.2407L46.5501 24.9285C46.8258 24.764 46.9902 24.4738 46.9999 24.1594C47.0047 23.8402 46.8451 23.5451 46.5839 23.371ZM36.4603 28.8319V26.6456C36.4603 26.1474 36.0975 25.7411 35.6041 25.7266C35.5703 25.7266 35.5267 25.7169 35.4687 25.7072C30.4673 24.8995 23.8214 27.2744 19.1344 29.4123C15.6083 31.0182 12.3724 31.2261 9.49932 30.0363C7.88379 29.3639 6.53429 28.3095 5.44115 27.168C8.63835 29.006 13.1657 29.9831 18.7088 26.8681C28.9582 21.1025 35.2752 22.4036 35.3333 22.4133C35.6041 22.4762 35.8943 22.4133 36.112 22.2392C36.3297 22.0602 36.4603 21.799 36.4603 21.5185V18.9356L44.3493 24.1062L36.4603 28.8319Z" fill="white"/>
</mask>
<g mask="url(#mask1_714_1099)">
<path d="M5.74564 18.9351H5.44092V31.2257H5.74564V18.9351Z" fill="#04DC6F"/>
<path d="M6.08468 18.9351H5.74609V31.2257H6.08468V18.9351Z" fill="#04DB70"/>
<path d="M6.42306 18.9351H6.08447V31.2257H6.42306V18.9351Z" fill="#03DB71"/>
<path d="M6.76144 18.9351H6.42285V31.2257H6.76144V18.9351Z" fill="#03DA72"/>
<path d="M7.1003 18.9351H6.76172V31.2257H7.1003V18.9351Z" fill="#03D973"/>
<path d="M7.43917 18.9351H7.10059V31.2257H7.43917V18.9351Z" fill="#03D874"/>
<path d="M7.77706 18.9351H7.43848V31.2257H7.77706V18.9351Z" fill="#03D775"/>
<path d="M8.11593 18.9351H7.77734V31.2257H8.11593V18.9351Z" fill="#03D776"/>
<path d="M8.45431 18.9351H8.11572V31.2257H8.45431V18.9351Z" fill="#03D677"/>
<path d="M8.79317 18.9351H8.45459V31.2257H8.79317V18.9351Z" fill="#03D578"/>
<path d="M9.13204 18.9351H8.79346V31.2257H9.13204V18.9351Z" fill="#03D479"/>
<path d="M9.47042 18.9351H9.13184V31.2257H9.47042V18.9351Z" fill="#03D37A"/>
<path d="M9.8044 18.9351H9.46582V31.2257H9.8044V18.9351Z" fill="#03D37B"/>
<path d="M10.1423 18.9351H9.80371V31.2257H10.1423V18.9351Z" fill="#03D27C"/>
<path d="M10.4816 18.9351H10.1431V31.2257H10.4816V18.9351Z" fill="#03D17D"/>
<path d="M10.8195 18.9351H10.481V31.2257H10.8195V18.9351Z" fill="#03D07E"/>
<path d="M11.1584 18.9351H10.8198V31.2257H11.1584V18.9351Z" fill="#03CF7F"/>
<path d="M11.4968 18.9351H11.1582V31.2257H11.4968V18.9351Z" fill="#03CF80"/>
<path d="M11.8357 18.9351H11.4971V31.2257H11.8357V18.9351Z" fill="#03CE81"/>
<path d="M12.174 18.9351H11.8354V31.2257H12.174V18.9351Z" fill="#03CD82"/>
<path d="M12.5129 18.9351H12.1743V31.2257H12.5129V18.9351Z" fill="#03CC83"/>
<path d="M12.8513 18.9351H12.5127V31.2257H12.8513V18.9351Z" fill="#03CC84"/>
<path d="M13.1897 18.9351H12.8511V31.2257H13.1897V18.9351Z" fill="#03CB85"/>
<path d="M13.5236 18.9351H13.1851V31.2257H13.5236V18.9351Z" fill="#03CA86"/>
<path d="M13.8625 18.9351H13.5239V31.2257H13.8625V18.9351Z" fill="#03C987"/>
<path d="M14.2009 18.9351H13.8623V31.2257H14.2009V18.9351Z" fill="#03C888"/>
<path d="M14.5398 18.9351H14.2012V31.2257H14.5398V18.9351Z" fill="#03C889"/>
<path d="M14.8781 18.9351H14.5396V31.2257H14.8781V18.9351Z" fill="#03C78A"/>
<path d="M15.2165 18.9351H14.8779V31.2257H15.2165V18.9351Z" fill="#03C68B"/>
<path d="M15.5554 18.9351H15.2168V31.2257H15.5554V18.9351Z" fill="#03C58C"/>
<path d="M15.8938 18.9351H15.5552V31.2257H15.8938V18.9351Z" fill="#03C48D"/>
<path d="M16.2326 18.9351H15.894V31.2257H16.2326V18.9351Z" fill="#03C48E"/>
<path d="M16.5705 18.9351H16.2319V31.2257H16.5705V18.9351Z" fill="#03C38F"/>
<path d="M16.905 18.9351H16.5664V31.2257H16.905V18.9351Z" fill="#03C290"/>
<path d="M17.2434 18.9351H16.9048V31.2257H17.2434V18.9351Z" fill="#03C191"/>
<path d="M17.5817 18.9351H17.2432V31.2257H17.5817V18.9351Z" fill="#03C092"/>
<path d="M17.9206 18.9351H17.582V31.2257H17.9206V18.9351Z" fill="#02C093"/>
<path d="M18.259 18.9351H17.9204V31.2257H18.259V18.9351Z" fill="#02BF94"/>
<path d="M18.5974 18.9351H18.2588V31.2257H18.5974V18.9351Z" fill="#02BE95"/>
<path d="M18.9362 18.9351H18.5977V31.2257H18.9362V18.9351Z" fill="#02BD96"/>
<path d="M19.2746 18.9351H18.936V31.2257H19.2746V18.9351Z" fill="#02BC97"/>
<path d="M19.6135 18.9351H19.2749V31.2257H19.6135V18.9351Z" fill="#02BC98"/>
<path d="M19.9519 18.9351H19.6133V31.2257H19.9519V18.9351Z" fill="#02BB99"/>
<path d="M20.2907 18.9351H19.9521V31.2257H20.2907V18.9351Z" fill="#02BA9A"/>
<path d="M20.6242 18.9351H20.2856V31.2257H20.6242V18.9351Z" fill="#02B99B"/>
<path d="M20.9631 18.9351H20.6245V31.2257H20.9631V18.9351Z" fill="#02B89C"/>
<path d="M21.3015 18.9351H20.9629V31.2257H21.3015V18.9351Z" fill="#02B89D"/>
<path d="M21.6399 18.9351H21.3013V31.2257H21.6399V18.9351Z" fill="#02B79E"/>
<path d="M21.9782 18.9351H21.6396V31.2257H21.9782V18.9351Z" fill="#02B69F"/>
<path d="M22.3171 18.9351H21.9785V31.2257H22.3171V18.9351Z" fill="#02B5A0"/>
<path d="M22.656 18.9351H22.3174V31.2257H22.656V18.9351Z" fill="#02B4A1"/>
<path d="M22.9943 18.9351H22.6558V31.2257H22.9943V18.9351Z" fill="#02B4A2"/>
<path d="M23.3332 18.9351H22.9946V31.2257H23.3332V18.9351Z" fill="#02B3A3"/>
<path d="M23.6711 18.9351H23.3325V31.2257H23.6711V18.9351Z" fill="#02B2A5"/>
<path d="M24.0046 18.9351H23.666V31.2257H24.0046V18.9351Z" fill="#02B1A6"/>
<path d="M24.344 18.9351H24.0054V31.2257H24.344V18.9351Z" fill="#02B0A7"/>
<path d="M24.6823 18.9351H24.3438V31.2257H24.6823V18.9351Z" fill="#02B0A8"/>
<path d="M25.0212 18.9351H24.6826V31.2257H25.0212V18.9351Z" fill="#02AFA9"/>
<path d="M25.3596 18.9351H25.021V31.2257H25.3596V18.9351Z" fill="#02AEAA"/>
<path d="M25.6984 18.9351H25.3599V31.2257H25.6984V18.9351Z" fill="#02ADAB"/>
<path d="M26.0368 18.9351H25.6982V31.2257H26.0368V18.9351Z" fill="#02ACAC"/>
<path d="M26.3752 18.9351H26.0366V31.2257H26.3752V18.9351Z" fill="#02ACAD"/>
<path d="M26.7141 18.9351H26.3755V31.2257H26.7141V18.9351Z" fill="#02ABAE"/>
<path d="M27.0525 18.9351H26.7139V31.2257H27.0525V18.9351Z" fill="#02AAAF"/>
<path d="M27.3913 18.9351H27.0527V31.2257H27.3913V18.9351Z" fill="#02A9B0"/>
<path d="M27.7248 18.9351H27.3862V31.2257H27.7248V18.9351Z" fill="#02A8B1"/>
<path d="M28.0632 18.9351H27.7246V31.2257H28.0632V18.9351Z" fill="#02A8B2"/>
<path d="M28.4025 18.9351H28.064V31.2257H28.4025V18.9351Z" fill="#02A7B3"/>
<path d="M28.7404 18.9351H28.4019V31.2257H28.7404V18.9351Z" fill="#02A6B4"/>
<path d="M29.0793 18.9351H28.7407V31.2257H29.0793V18.9351Z" fill="#02A5B5"/>
<path d="M29.4177 18.9351H29.0791V31.2257H29.4177V18.9351Z" fill="#02A4B6"/>
<path d="M29.7566 18.9351H29.418V31.2257H29.7566V18.9351Z" fill="#01A4B7"/>
<path d="M30.0949 18.9351H29.7563V31.2257H30.0949V18.9351Z" fill="#01A3B8"/>
<path d="M30.4333 18.9351H30.0947V31.2257H30.4333V18.9351Z" fill="#01A2B9"/>
<path d="M30.7722 18.9351H30.4336V31.2257H30.7722V18.9351Z" fill="#01A1BA"/>
<path d="M31.1106 18.9351H30.772V31.2257H31.1106V18.9351Z" fill="#01A0BB"/>
<path d="M31.4441 18.9351H31.1055V31.2257H31.4441V18.9351Z" fill="#01A0BC"/>
<path d="M31.7834 18.9351H31.4448V31.2257H31.7834V18.9351Z" fill="#019FBD"/>
<path d="M32.1218 18.9351H31.7832V31.2257H32.1218V18.9351Z" fill="#019EBE"/>
<path d="M32.4602 18.9351H32.1216V31.2257H32.4602V18.9351Z" fill="#019DBF"/>
<path d="M32.7985 18.9351H32.46V31.2257H32.7985V18.9351Z" fill="#019CC0"/>
<path d="M33.1374 18.9351H32.7988V31.2257H33.1374V18.9351Z" fill="#019CC1"/>
<path d="M33.4758 18.9351H33.1372V31.2257H33.4758V18.9351Z" fill="#019BC2"/>
<path d="M33.8147 18.9351H33.4761V31.2257H33.8147V18.9351Z" fill="#019AC3"/>
<path d="M34.153 18.9351H33.8145V31.2257H34.153V18.9351Z" fill="#0199C4"/>
<path d="M34.4914 18.9351H34.1528V31.2257H34.4914V18.9351Z" fill="#0198C5"/>
<path d="M34.8259 18.9351H34.4873V31.2257H34.8259V18.9351Z" fill="#0198C6"/>
<path d="M35.1643 18.9351H34.8257V31.2257H35.1643V18.9351Z" fill="#0197C7"/>
<path d="M35.5022 18.9351H35.1636V31.2257H35.5022V18.9351Z" fill="#0196C8"/>
<path d="M35.8415 18.9351H35.5029V31.2257H35.8415V18.9351Z" fill="#0195C9"/>
<path d="M36.1799 18.9351H35.8413V31.2257H36.1799V18.9351Z" fill="#0195CA"/>
<path d="M36.5183 18.9351H36.1797V31.2257H36.5183V18.9351Z" fill="#0194CB"/>
<path d="M36.8571 18.9351H36.5186V31.2257H36.8571V18.9351Z" fill="#0193CC"/>
<path d="M37.1955 18.9351H36.8569V31.2257H37.1955V18.9351Z" fill="#0192CD"/>
<path d="M37.5344 18.9351H37.1958V31.2257H37.5344V18.9351Z" fill="#0191CE"/>
<path d="M37.8728 18.9351H37.5342V31.2257H37.8728V18.9351Z" fill="#0191CF"/>
<path d="M38.2116 18.9351H37.873V31.2257H38.2116V18.9351Z" fill="#0190D0"/>
<path d="M38.5446 18.9351H38.2061V31.2257H38.5446V18.9351Z" fill="#018FD1"/>
<path d="M38.884 18.9351H38.5454V31.2257H38.884V18.9351Z" fill="#018ED2"/>
<path d="M39.2224 18.9351H38.8838V31.2257H39.2224V18.9351Z" fill="#018DD3"/>
<path d="M39.5608 18.9351H39.2222V31.2257H39.5608V18.9351Z" fill="#018DD4"/>
<path d="M39.8991 18.9351H39.5605V31.2257H39.8991V18.9351Z" fill="#018CD5"/>
<path d="M40.238 18.9351H39.8994V31.2257H40.238V18.9351Z" fill="#018BD6"/>
<path d="M40.5764 18.9351H40.2378V31.2257H40.5764V18.9351Z" fill="#018AD7"/>
<path d="M40.9152 18.9351H40.5767V31.2257H40.9152V18.9351Z" fill="#0189D8"/>
<path d="M41.2541 18.9351H40.9155V31.2257H41.2541V18.9351Z" fill="#0089D9"/>
<path d="M41.5925 18.9351H41.2539V31.2257H41.5925V18.9351Z" fill="#0088DA"/>
<path d="M41.9309 18.9351H41.5923V31.2257H41.9309V18.9351Z" fill="#0087DB"/>
<path d="M42.2649 18.9351H41.9263V31.2257H42.2649V18.9351Z" fill="#0086DC"/>
<path d="M42.6032 18.9351H42.2646V31.2257H42.6032V18.9351Z" fill="#0085DD"/>
<path d="M42.9416 18.9351H42.603V31.2257H42.9416V18.9351Z" fill="#0085DE"/>
<path d="M43.2805 18.9351H42.9419V31.2257H43.2805V18.9351Z" fill="#0084DF"/>
<path d="M43.6189 18.9351H43.2803V31.2257H43.6189V18.9351Z" fill="#0083E0"/>
<path d="M43.9577 18.9351H43.6191V31.2257H43.9577V18.9351Z" fill="#0082E1"/>
<path d="M44.2961 18.9351H43.9575V31.2257H44.2961V18.9351Z" fill="#0081E2"/>
<path d="M44.3496 18.9351H44.2964V31.2257H44.3496V18.9351Z" fill="#0081E3"/>
<path d="M0.338096 16.2705H-0.000488281V32.6386H0.338096V16.2705Z" fill="#04E95F"/>
<path d="M0.677451 16.2705H0.338867V32.6386H0.677451V16.2705Z" fill="#04E860"/>
<path d="M1.01583 16.2705H0.677246V32.6386H1.01583V16.2705Z" fill="#04E761"/>
<path d="M1.35372 16.2705H1.01514V32.6386H1.35372V16.2705Z" fill="#04E762"/>
<path d="M1.69259 16.2705H1.354V32.6386H1.69259V16.2705Z" fill="#04E663"/>
<path d="M2.03145 16.2705H1.69287V32.6386H2.03145V16.2705Z" fill="#04E564"/>
<path d="M2.36983 16.2705H2.03125V32.6386H2.36983V16.2705Z" fill="#04E465"/>
<path d="M2.70382 16.2705H2.36523V32.6386H2.70382V16.2705Z" fill="#04E366"/>
<path d="M3.0422 16.2705H2.70361V32.6386H3.0422V16.2705Z" fill="#04E367"/>
<path d="M3.38058 16.2705H3.04199V32.6386H3.38058V16.2705Z" fill="#04E268"/>
<path d="M3.71895 16.2705H3.38037V32.6386H3.71895V16.2705Z" fill="#04E169"/>
<path d="M4.05831 16.2705H3.71973V32.6386H4.05831V16.2705Z" fill="#04E06A"/>
<path d="M4.3962 16.2705H4.05762V32.6386H4.3962V16.2705Z" fill="#04DF6B"/>
<path d="M4.73507 16.2705H4.39648V32.6386H4.73507V16.2705Z" fill="#04DF6C"/>
<path d="M5.07345 16.2705H4.73486V32.6386H5.07345V16.2705Z" fill="#04DE6D"/>
<path d="M5.41231 16.2705H5.07373V32.6386H5.41231V16.2705Z" fill="#04DD6E"/>
<path d="M5.7502 16.2705H5.41162V32.6386H5.7502V16.2705Z" fill="#04DC6F"/>
<path d="M6.08468 16.2705H5.74609V32.6386H6.08468V16.2705Z" fill="#04DB70"/>
<path d="M6.42306 16.2705H6.08447V32.6386H6.42306V16.2705Z" fill="#03DB71"/>
<path d="M6.76144 16.2705H6.42285V32.6386H6.76144V16.2705Z" fill="#03DA72"/>
<path d="M7.1003 16.2705H6.76172V32.6386H7.1003V16.2705Z" fill="#03D973"/>
<path d="M7.43917 16.2705H7.10059V32.6386H7.43917V16.2705Z" fill="#03D874"/>
<path d="M7.77706 16.2705H7.43848V32.6386H7.77706V16.2705Z" fill="#03D775"/>
<path d="M8.11593 16.2705H7.77734V32.6386H8.11593V16.2705Z" fill="#03D776"/>
<path d="M8.45431 16.2705H8.11572V32.6386H8.45431V16.2705Z" fill="#03D677"/>
<path d="M8.79317 16.2705H8.45459V32.6386H8.79317V16.2705Z" fill="#03D578"/>
<path d="M9.13204 16.2705H8.79346V32.6386H9.13204V16.2705Z" fill="#03D479"/>
<path d="M9.47042 16.2705H9.13184V32.6386H9.47042V16.2705Z" fill="#03D37A"/>
<path d="M9.8044 16.2705H9.46582V32.6386H9.8044V16.2705Z" fill="#03D37B"/>
<path d="M10.1423 16.2705H9.80371V32.6386H10.1423V16.2705Z" fill="#03D27C"/>
<path d="M10.4816 16.2705H10.1431V32.6386H10.4816V16.2705Z" fill="#03D17D"/>
<path d="M10.8195 16.2705H10.481V32.6386H10.8195V16.2705Z" fill="#03D07E"/>
<path d="M11.1584 16.2705H10.8198V32.6386H11.1584V16.2705Z" fill="#03CF7F"/>
<path d="M11.4968 16.2705H11.1582V32.6386H11.4968V16.2705Z" fill="#03CF80"/>
<path d="M11.8357 16.2705H11.4971V32.6386H11.8357V16.2705Z" fill="#03CE81"/>
<path d="M12.174 16.2705H11.8354V32.6386H12.174V16.2705Z" fill="#03CD82"/>
<path d="M12.5129 16.2705H12.1743V32.6386H12.5129V16.2705Z" fill="#03CC83"/>
<path d="M12.8513 16.2705H12.5127V32.6386H12.8513V16.2705Z" fill="#03CC84"/>
<path d="M13.1897 16.2705H12.8511V32.6386H13.1897V16.2705Z" fill="#03CB85"/>
<path d="M13.5236 16.2705H13.1851V32.6386H13.5236V16.2705Z" fill="#03CA86"/>
<path d="M13.8625 16.2705H13.5239V32.6386H13.8625V16.2705Z" fill="#03C987"/>
<path d="M14.2009 16.2705H13.8623V32.6386H14.2009V16.2705Z" fill="#03C888"/>
<path d="M14.5398 16.2705H14.2012V32.6386H14.5398V16.2705Z" fill="#03C889"/>
<path d="M14.8781 16.2705H14.5396V32.6386H14.8781V16.2705Z" fill="#03C78A"/>
<path d="M15.2165 16.2705H14.8779V32.6386H15.2165V16.2705Z" fill="#03C68B"/>
<path d="M15.5554 16.2705H15.2168V32.6386H15.5554V16.2705Z" fill="#03C58C"/>
<path d="M15.8938 16.2705H15.5552V32.6386H15.8938V16.2705Z" fill="#03C48D"/>
<path d="M16.2326 16.2705H15.894V32.6386H16.2326V16.2705Z" fill="#03C48E"/>
<path d="M16.5705 16.2705H16.2319V32.6386H16.5705V16.2705Z" fill="#03C38F"/>
<path d="M16.905 16.2705H16.5664V32.6386H16.905V16.2705Z" fill="#03C290"/>
<path d="M17.2434 16.2705H16.9048V32.6386H17.2434V16.2705Z" fill="#03C191"/>
<path d="M17.5817 16.2705H17.2432V32.6386H17.5817V16.2705Z" fill="#03C092"/>
<path d="M17.9206 16.2705H17.582V32.6386H17.9206V16.2705Z" fill="#02C093"/>
<path d="M18.259 16.2705H17.9204V32.6386H18.259V16.2705Z" fill="#02BF94"/>
<path d="M18.5974 16.2705H18.2588V32.6386H18.5974V16.2705Z" fill="#02BE95"/>
<path d="M18.9362 16.2705H18.5977V32.6386H18.9362V16.2705Z" fill="#02BD96"/>
<path d="M19.2746 16.2705H18.936V32.6386H19.2746V16.2705Z" fill="#02BC97"/>
<path d="M19.6135 16.2705H19.2749V32.6386H19.6135V16.2705Z" fill="#02BC98"/>
<path d="M19.9519 16.2705H19.6133V32.6386H19.9519V16.2705Z" fill="#02BB99"/>
<path d="M20.2907 16.2705H19.9521V32.6386H20.2907V16.2705Z" fill="#02BA9A"/>
<path d="M20.6242 16.2705H20.2856V32.6386H20.6242V16.2705Z" fill="#02B99B"/>
<path d="M20.9631 16.2705H20.6245V32.6386H20.9631V16.2705Z" fill="#02B89C"/>
<path d="M21.3015 16.2705H20.9629V32.6386H21.3015V16.2705Z" fill="#02B89D"/>
<path d="M21.6399 16.2705H21.3013V32.6386H21.6399V16.2705Z" fill="#02B79E"/>
<path d="M21.9782 16.2705H21.6396V32.6386H21.9782V16.2705Z" fill="#02B69F"/>
<path d="M22.3171 16.2705H21.9785V32.6386H22.3171V16.2705Z" fill="#02B5A0"/>
<path d="M22.656 16.2705H22.3174V32.6386H22.656V16.2705Z" fill="#02B4A1"/>
<path d="M22.9943 16.2705H22.6558V32.6386H22.9943V16.2705Z" fill="#02B4A2"/>
<path d="M23.3332 16.2705H22.9946V32.6386H23.3332V16.2705Z" fill="#02B3A3"/>
<path d="M23.6711 16.2705H23.3325V32.6386H23.6711V16.2705Z" fill="#02B2A5"/>
<path d="M24.0046 16.2705H23.666V32.6386H24.0046V16.2705Z" fill="#02B1A6"/>
<path d="M24.344 16.2705H24.0054V32.6386H24.344V16.2705Z" fill="#02B0A7"/>
<path d="M24.6823 16.2705H24.3438V32.6386H24.6823V16.2705Z" fill="#02B0A8"/>
<path d="M25.0212 16.2705H24.6826V32.6386H25.0212V16.2705Z" fill="#02AFA9"/>
<path d="M25.3596 16.2705H25.021V32.6386H25.3596V16.2705Z" fill="#02AEAA"/>
<path d="M25.6984 16.2705H25.3599V32.6386H25.6984V16.2705Z" fill="#02ADAB"/>
<path d="M26.0368 16.2705H25.6982V32.6386H26.0368V16.2705Z" fill="#02ACAC"/>
<path d="M26.3752 16.2705H26.0366V32.6386H26.3752V16.2705Z" fill="#02ACAD"/>
<path d="M26.7141 16.2705H26.3755V32.6386H26.7141V16.2705Z" fill="#02ABAE"/>
<path d="M27.0525 16.2705H26.7139V32.6386H27.0525V16.2705Z" fill="#02AAAF"/>
<path d="M27.3913 16.2705H27.0527V32.6386H27.3913V16.2705Z" fill="#02A9B0"/>
<path d="M27.7248 16.2705H27.3862V32.6386H27.7248V16.2705Z" fill="#02A8B1"/>
<path d="M28.0632 16.2705H27.7246V32.6386H28.0632V16.2705Z" fill="#02A8B2"/>
<path d="M28.4025 16.2705H28.064V32.6386H28.4025V16.2705Z" fill="#02A7B3"/>
<path d="M28.7404 16.2705H28.4019V32.6386H28.7404V16.2705Z" fill="#02A6B4"/>
<path d="M29.0793 16.2705H28.7407V32.6386H29.0793V16.2705Z" fill="#02A5B5"/>
<path d="M29.4177 16.2705H29.0791V32.6386H29.4177V16.2705Z" fill="#02A4B6"/>
<path d="M29.7566 16.2705H29.418V32.6386H29.7566V16.2705Z" fill="#01A4B7"/>
<path d="M30.0949 16.2705H29.7563V32.6386H30.0949V16.2705Z" fill="#01A3B8"/>
<path d="M30.4333 16.2705H30.0947V32.6386H30.4333V16.2705Z" fill="#01A2B9"/>
<path d="M30.7722 16.2705H30.4336V32.6386H30.7722V16.2705Z" fill="#01A1BA"/>
<path d="M31.1106 16.2705H30.772V32.6386H31.1106V16.2705Z" fill="#01A0BB"/>
<path d="M31.4441 16.2705H31.1055V32.6386H31.4441V16.2705Z" fill="#01A0BC"/>
<path d="M31.7834 16.2705H31.4448V32.6386H31.7834V16.2705Z" fill="#019FBD"/>
<path d="M32.1218 16.2705H31.7832V32.6386H32.1218V16.2705Z" fill="#019EBE"/>
<path d="M32.4602 16.2705H32.1216V32.6386H32.4602V16.2705Z" fill="#019DBF"/>
<path d="M32.7985 16.2705H32.46V32.6386H32.7985V16.2705Z" fill="#019CC0"/>
<path d="M33.1374 16.2705H32.7988V32.6386H33.1374V16.2705Z" fill="#019CC1"/>
<path d="M33.4758 16.2705H33.1372V32.6386H33.4758V16.2705Z" fill="#019BC2"/>
<path d="M33.8147 16.2705H33.4761V32.6386H33.8147V16.2705Z" fill="#019AC3"/>
<path d="M34.153 16.2705H33.8145V32.6386H34.153V16.2705Z" fill="#0199C4"/>
<path d="M34.4914 16.2705H34.1528V32.6386H34.4914V16.2705Z" fill="#0198C5"/>
<path d="M34.8259 16.2705H34.4873V32.6386H34.8259V16.2705Z" fill="#0198C6"/>
<path d="M35.1643 16.2705H34.8257V32.6386H35.1643V16.2705Z" fill="#0197C7"/>
<path d="M35.5022 16.2705H35.1636V32.6386H35.5022V16.2705Z" fill="#0196C8"/>
<path d="M35.8415 16.2705H35.5029V32.6386H35.8415V16.2705Z" fill="#0195C9"/>
<path d="M36.1799 16.2705H35.8413V32.6386H36.1799V16.2705Z" fill="#0195CA"/>
<path d="M36.5183 16.2705H36.1797V32.6386H36.5183V16.2705Z" fill="#0194CB"/>
<path d="M36.8571 16.2705H36.5186V32.6386H36.8571V16.2705Z" fill="#0193CC"/>
<path d="M37.1955 16.2705H36.8569V32.6386H37.1955V16.2705Z" fill="#0192CD"/>
<path d="M37.5344 16.2705H37.1958V32.6386H37.5344V16.2705Z" fill="#0191CE"/>
<path d="M37.8728 16.2705H37.5342V32.6386H37.8728V16.2705Z" fill="#0191CF"/>
<path d="M38.2116 16.2705H37.873V32.6386H38.2116V16.2705Z" fill="#0190D0"/>
<path d="M38.5446 16.2705H38.2061V32.6386H38.5446V16.2705Z" fill="#018FD1"/>
<path d="M38.884 16.2705H38.5454V32.6386H38.884V16.2705Z" fill="#018ED2"/>
<path d="M39.2224 16.2705H38.8838V32.6386H39.2224V16.2705Z" fill="#018DD3"/>
<path d="M39.5608 16.2705H39.2222V32.6386H39.5608V16.2705Z" fill="#018DD4"/>
<path d="M39.8991 16.2705H39.5605V32.6386H39.8991V16.2705Z" fill="#018CD5"/>
<path d="M40.238 16.2705H39.8994V32.6386H40.238V16.2705Z" fill="#018BD6"/>
<path d="M40.5764 16.2705H40.2378V32.6386H40.5764V16.2705Z" fill="#018AD7"/>
<path d="M40.9152 16.2705H40.5767V32.6386H40.9152V16.2705Z" fill="#0189D8"/>
<path d="M41.2541 16.2705H40.9155V32.6386H41.2541V16.2705Z" fill="#0089D9"/>
<path d="M41.5925 16.2705H41.2539V32.6386H41.5925V16.2705Z" fill="#0088DA"/>
<path d="M41.9309 16.2705H41.5923V32.6386H41.9309V16.2705Z" fill="#0087DB"/>
<path d="M42.2649 16.2705H41.9263V32.6386H42.2649V16.2705Z" fill="#0086DC"/>
<path d="M42.6032 16.2705H42.2646V32.6386H42.6032V16.2705Z" fill="#0085DD"/>
<path d="M42.9416 16.2705H42.603V32.6386H42.9416V16.2705Z" fill="#0085DE"/>
<path d="M43.2805 16.2705H42.9419V32.6386H43.2805V16.2705Z" fill="#0084DF"/>
<path d="M43.6189 16.2705H43.2803V32.6386H43.6189V16.2705Z" fill="#0083E0"/>
<path d="M43.9577 16.2705H43.6191V32.6386H43.9577V16.2705Z" fill="#0082E1"/>
<path d="M44.2961 16.2705H43.9575V32.6386H44.2961V16.2705Z" fill="#0081E2"/>
<path d="M44.635 16.2705H44.2964V32.6386H44.635V16.2705Z" fill="#0081E3"/>
<path d="M44.9733 16.2705H44.6348V32.6386H44.9733V16.2705Z" fill="#0080E4"/>
<path d="M45.3122 16.2705H44.9736V32.6386H45.3122V16.2705Z" fill="#007FE5"/>
<path d="M45.6457 16.2705H45.3071V32.6386H45.6457V16.2705Z" fill="#007EE6"/>
<path d="M45.9841 16.2705H45.6455V32.6386H45.9841V16.2705Z" fill="#007DE7"/>
<path d="M46.3234 16.2705H45.9849V32.6386H46.3234V16.2705Z" fill="#007DE8"/>
<path d="M46.6613 16.2705H46.3228V32.6386H46.6613V16.2705Z" fill="#007CE9"/>
<path d="M46.9997 16.2705H46.6611V32.6386H46.9997V16.2705Z" fill="#007BEA"/>
</g>
<mask id="mask2_714_1099" style="mask-type:luminance" maskUnits="userSpaceOnUse" x="0" y="32" width="47" height="17">
<path d="M46.5839 39.6908L36.0443 32.7886C35.7589 32.6047 35.3961 32.5902 35.1011 32.7499C34.806 32.9095 34.6174 33.219 34.6174 33.5576V36.7935C32.2618 36.6145 26.3027 36.808 17.8043 41.5869C7.9515 47.1252 1.94406 38.0027 1.69738 37.611C1.44102 37.2143 0.933147 37.0741 0.512336 37.282C0.0915245 37.49 -0.106789 37.9834 0.0576661 38.4236C0.164078 38.7138 2.73731 45.529 8.78345 48.049C10.2394 48.6585 11.7678 48.9583 13.3592 48.9583C15.4342 48.9583 17.6205 48.4408 19.8938 47.4057C25.969 44.6341 31.0429 43.3862 34.6174 43.7683V46.7721C34.6174 47.1058 34.7964 47.4105 35.0866 47.575C35.372 47.7346 35.7251 47.7346 36.0104 47.5605L46.5501 41.2483C46.8258 41.0839 46.9902 40.7936 46.9999 40.4792C47.0047 40.16 46.8451 39.865 46.5839 39.6908ZM36.4603 45.1517V42.9654C36.4603 42.4672 36.0975 42.0609 35.6041 42.0464C35.5703 42.0464 35.5267 42.0367 35.4687 42.0271C30.4673 41.2193 23.8214 43.5942 19.1344 45.7321C15.6083 47.338 12.3724 47.546 9.49932 46.3561C7.88379 45.6838 6.53429 44.6293 5.44115 43.4878C8.63835 45.3258 13.1657 46.3029 18.7088 43.1879C28.9582 37.4223 35.2752 38.7234 35.3333 38.7331C35.6041 38.796 35.8943 38.7331 36.112 38.559C36.3297 38.38 36.4603 38.1188 36.4603 37.8383V35.2554L44.3493 40.426L36.4603 45.1517Z" fill="white"/>
</mask>
<g mask="url(#mask2_714_1099)">
<path d="M5.74564 35.2549H5.44092V47.5455H5.74564V35.2549Z" fill="#04DC6F"/>
<path d="M6.08468 35.2549H5.74609V47.5455H6.08468V35.2549Z" fill="#04DB70"/>
<path d="M6.42306 35.2549H6.08447V47.5455H6.42306V35.2549Z" fill="#03DB71"/>
<path d="M6.76144 35.2549H6.42285V47.5455H6.76144V35.2549Z" fill="#03DA72"/>
<path d="M7.1003 35.2549H6.76172V47.5455H7.1003V35.2549Z" fill="#03D973"/>
<path d="M7.43917 35.2549H7.10059V47.5455H7.43917V35.2549Z" fill="#03D874"/>
<path d="M7.77706 35.2549H7.43848V47.5455H7.77706V35.2549Z" fill="#03D775"/>
<path d="M8.11593 35.2549H7.77734V47.5455H8.11593V35.2549Z" fill="#03D776"/>
<path d="M8.45431 35.2549H8.11572V47.5455H8.45431V35.2549Z" fill="#03D677"/>
<path d="M8.79317 35.2549H8.45459V47.5455H8.79317V35.2549Z" fill="#03D578"/>
<path d="M9.13204 35.2549H8.79346V47.5455H9.13204V35.2549Z" fill="#03D479"/>
<path d="M9.47042 35.2549H9.13184V47.5455H9.47042V35.2549Z" fill="#03D37A"/>
<path d="M9.8044 35.2549H9.46582V47.5455H9.8044V35.2549Z" fill="#03D37B"/>
<path d="M10.1423 35.2549H9.80371V47.5455H10.1423V35.2549Z" fill="#03D27C"/>
<path d="M10.4816 35.2549H10.1431V47.5455H10.4816V35.2549Z" fill="#03D17D"/>
<path d="M10.8195 35.2549H10.481V47.5455H10.8195V35.2549Z" fill="#03D07E"/>
<path d="M11.1584 35.2549H10.8198V47.5455H11.1584V35.2549Z" fill="#03CF7F"/>
<path d="M11.4968 35.2549H11.1582V47.5455H11.4968V35.2549Z" fill="#03CF80"/>
<path d="M11.8357 35.2549H11.4971V47.5455H11.8357V35.2549Z" fill="#03CE81"/>
<path d="M12.174 35.2549H11.8354V47.5455H12.174V35.2549Z" fill="#03CD82"/>
<path d="M12.5129 35.2549H12.1743V47.5455H12.5129V35.2549Z" fill="#03CC83"/>
<path d="M12.8513 35.2549H12.5127V47.5455H12.8513V35.2549Z" fill="#03CC84"/>
<path d="M13.1897 35.2549H12.8511V47.5455H13.1897V35.2549Z" fill="#03CB85"/>
<path d="M13.5236 35.2549H13.1851V47.5455H13.5236V35.2549Z" fill="#03CA86"/>
<path d="M13.8625 35.2549H13.5239V47.5455H13.8625V35.2549Z" fill="#03C987"/>
<path d="M14.2009 35.2549H13.8623V47.5455H14.2009V35.2549Z" fill="#03C888"/>
<path d="M14.5398 35.2549H14.2012V47.5455H14.5398V35.2549Z" fill="#03C889"/>
<path d="M14.8781 35.2549H14.5396V47.5455H14.8781V35.2549Z" fill="#03C78A"/>
<path d="M15.2165 35.2549H14.8779V47.5455H15.2165V35.2549Z" fill="#03C68B"/>
<path d="M15.5554 35.2549H15.2168V47.5455H15.5554V35.2549Z" fill="#03C58C"/>
<path d="M15.8938 35.2549H15.5552V47.5455H15.8938V35.2549Z" fill="#03C48D"/>
<path d="M16.2326 35.2549H15.894V47.5455H16.2326V35.2549Z" fill="#03C48E"/>
<path d="M16.5705 35.2549H16.2319V47.5455H16.5705V35.2549Z" fill="#03C38F"/>
<path d="M16.905 35.2549H16.5664V47.5455H16.905V35.2549Z" fill="#03C290"/>
<path d="M17.2434 35.2549H16.9048V47.5455H17.2434V35.2549Z" fill="#03C191"/>
<path d="M17.5817 35.2549H17.2432V47.5455H17.5817V35.2549Z" fill="#03C092"/>
<path d="M17.9206 35.2549H17.582V47.5455H17.9206V35.2549Z" fill="#02C093"/>
<path d="M18.259 35.2549H17.9204V47.5455H18.259V35.2549Z" fill="#02BF94"/>
<path d="M18.5974 35.2549H18.2588V47.5455H18.5974V35.2549Z" fill="#02BE95"/>
<path d="M18.9362 35.2549H18.5977V47.5455H18.9362V35.2549Z" fill="#02BD96"/>
<path d="M19.2746 35.2549H18.936V47.5455H19.2746V35.2549Z" fill="#02BC97"/>
<path d="M19.6135 35.2549H19.2749V47.5455H19.6135V35.2549Z" fill="#02BC98"/>
<path d="M19.9519 35.2549H19.6133V47.5455H19.9519V35.2549Z" fill="#02BB99"/>
<path d="M20.2907 35.2549H19.9521V47.5455H20.2907V35.2549Z" fill="#02BA9A"/>
<path d="M20.6242 35.2549H20.2856V47.5455H20.6242V35.2549Z" fill="#02B99B"/>
<path d="M20.9631 35.2549H20.6245V47.5455H20.9631V35.2549Z" fill="#02B89C"/>
<path d="M21.3015 35.2549H20.9629V47.5455H21.3015V35.2549Z" fill="#02B89D"/>
<path d="M21.6399 35.2549H21.3013V47.5455H21.6399V35.2549Z" fill="#02B79E"/>
<path d="M21.9782 35.2549H21.6396V47.5455H21.9782V35.2549Z" fill="#02B69F"/>
<path d="M22.3171 35.2549H21.9785V47.5455H22.3171V35.2549Z" fill="#02B5A0"/>
<path d="M22.656 35.2549H22.3174V47.5455H22.656V35.2549Z" fill="#02B4A1"/>
<path d="M22.9943 35.2549H22.6558V47.5455H22.9943V35.2549Z" fill="#02B4A2"/>
<path d="M23.3332 35.2549H22.9946V47.5455H23.3332V35.2549Z" fill="#02B3A3"/>
<path d="M23.6711 35.2549H23.3325V47.5455H23.6711V35.2549Z" fill="#02B2A5"/>
<path d="M24.0046 35.2549H23.666V47.5455H24.0046V35.2549Z" fill="#02B1A6"/>
<path d="M24.344 35.2549H24.0054V47.5455H24.344V35.2549Z" fill="#02B0A7"/>
<path d="M24.6823 35.2549H24.3438V47.5455H24.6823V35.2549Z" fill="#02B0A8"/>
<path d="M25.0212 35.2549H24.6826V47.5455H25.0212V35.2549Z" fill="#02AFA9"/>
<path d="M25.3596 35.2549H25.021V47.5455H25.3596V35.2549Z" fill="#02AEAA"/>
<path d="M25.6984 35.2549H25.3599V47.5455H25.6984V35.2549Z" fill="#02ADAB"/>
<path d="M26.0368 35.2549H25.6982V47.5455H26.0368V35.2549Z" fill="#02ACAC"/>
<path d="M26.3752 35.2549H26.0366V47.5455H26.3752V35.2549Z" fill="#02ACAD"/>
<path d="M26.7141 35.2549H26.3755V47.5455H26.7141V35.2549Z" fill="#02ABAE"/>
<path d="M27.0525 35.2549H26.7139V47.5455H27.0525V35.2549Z" fill="#02AAAF"/>
<path d="M27.3913 35.2549H27.0527V47.5455H27.3913V35.2549Z" fill="#02A9B0"/>
<path d="M27.7248 35.2549H27.3862V47.5455H27.7248V35.2549Z" fill="#02A8B1"/>
<path d="M28.0632 35.2549H27.7246V47.5455H28.0632V35.2549Z" fill="#02A8B2"/>
<path d="M28.4025 35.2549H28.064V47.5455H28.4025V35.2549Z" fill="#02A7B3"/>
<path d="M28.7404 35.2549H28.4019V47.5455H28.7404V35.2549Z" fill="#02A6B4"/>
<path d="M29.0793 35.2549H28.7407V47.5455H29.0793V35.2549Z" fill="#02A5B5"/>
<path d="M29.4177 35.2549H29.0791V47.5455H29.4177V35.2549Z" fill="#02A4B6"/>
<path d="M29.7566 35.2549H29.418V47.5455H29.7566V35.2549Z" fill="#01A4B7"/>
<path d="M30.0949 35.2549H29.7563V47.5455H30.0949V35.2549Z" fill="#01A3B8"/>
<path d="M30.4333 35.2549H30.0947V47.5455H30.4333V35.2549Z" fill="#01A2B9"/>
<path d="M30.7722 35.2549H30.4336V47.5455H30.7722V35.2549Z" fill="#01A1BA"/>
<path d="M31.1106 35.2549H30.772V47.5455H31.1106V35.2549Z" fill="#01A0BB"/>
<path d="M31.4441 35.2549H31.1055V47.5455H31.4441V35.2549Z" fill="#01A0BC"/>
<path d="M31.7834 35.2549H31.4448V47.5455H31.7834V35.2549Z" fill="#019FBD"/>
<path d="M32.1218 35.2549H31.7832V47.5455H32.1218V35.2549Z" fill="#019EBE"/>
<path d="M32.4602 35.2549H32.1216V47.5455H32.4602V35.2549Z" fill="#019DBF"/>
<path d="M32.7985 35.2549H32.46V47.5455H32.7985V35.2549Z" fill="#019CC0"/>
<path d="M33.1374 35.2549H32.7988V47.5455H33.1374V35.2549Z" fill="#019CC1"/>
<path d="M33.4758 35.2549H33.1372V47.5455H33.4758V35.2549Z" fill="#019BC2"/>
<path d="M33.8147 35.2549H33.4761V47.5455H33.8147V35.2549Z" fill="#019AC3"/>
<path d="M34.153 35.2549H33.8145V47.5455H34.153V35.2549Z" fill="#0199C4"/>
<path d="M34.4914 35.2549H34.1528V47.5455H34.4914V35.2549Z" fill="#0198C5"/>
<path d="M34.8259 35.2549H34.4873V47.5455H34.8259V35.2549Z" fill="#0198C6"/>
<path d="M35.1643 35.2549H34.8257V47.5455H35.1643V35.2549Z" fill="#0197C7"/>
<path d="M35.5022 35.2549H35.1636V47.5455H35.5022V35.2549Z" fill="#0196C8"/>
<path d="M35.8415 35.2549H35.5029V47.5455H35.8415V35.2549Z" fill="#0195C9"/>
<path d="M36.1799 35.2549H35.8413V47.5455H36.1799V35.2549Z" fill="#0195CA"/>
<path d="M36.5183 35.2549H36.1797V47.5455H36.5183V35.2549Z" fill="#0194CB"/>
<path d="M36.8571 35.2549H36.5186V47.5455H36.8571V35.2549Z" fill="#0193CC"/>
<path d="M37.1955 35.2549H36.8569V47.5455H37.1955V35.2549Z" fill="#0192CD"/>
<path d="M37.5344 35.2549H37.1958V47.5455H37.5344V35.2549Z" fill="#0191CE"/>
<path d="M37.8728 35.2549H37.5342V47.5455H37.8728V35.2549Z" fill="#0191CF"/>
<path d="M38.2116 35.2549H37.873V47.5455H38.2116V35.2549Z" fill="#0190D0"/>
<path d="M38.5446 35.2549H38.2061V47.5455H38.5446V35.2549Z" fill="#018FD1"/>
<path d="M38.884 35.2549H38.5454V47.5455H38.884V35.2549Z" fill="#018ED2"/>
<path d="M39.2224 35.2549H38.8838V47.5455H39.2224V35.2549Z" fill="#018DD3"/>
<path d="M39.5608 35.2549H39.2222V47.5455H39.5608V35.2549Z" fill="#018DD4"/>
<path d="M39.8991 35.2549H39.5605V47.5455H39.8991V35.2549Z" fill="#018CD5"/>
<path d="M40.238 35.2549H39.8994V47.5455H40.238V35.2549Z" fill="#018BD6"/>
<path d="M40.5764 35.2549H40.2378V47.5455H40.5764V35.2549Z" fill="#018AD7"/>
<path d="M40.9152 35.2549H40.5767V47.5455H40.9152V35.2549Z" fill="#0189D8"/>
<path d="M41.2541 35.2549H40.9155V47.5455H41.2541V35.2549Z" fill="#0089D9"/>
<path d="M41.5925 35.2549H41.2539V47.5455H41.5925V35.2549Z" fill="#0088DA"/>
<path d="M41.9309 35.2549H41.5923V47.5455H41.9309V35.2549Z" fill="#0087DB"/>
<path d="M42.2649 35.2549H41.9263V47.5455H42.2649V35.2549Z" fill="#0086DC"/>
<path d="M42.6032 35.2549H42.2646V47.5455H42.6032V35.2549Z" fill="#0085DD"/>
<path d="M42.9416 35.2549H42.603V47.5455H42.9416V35.2549Z" fill="#0085DE"/>
<path d="M43.2805 35.2549H42.9419V47.5455H43.2805V35.2549Z" fill="#0084DF"/>
<path d="M43.6189 35.2549H43.2803V47.5455H43.6189V35.2549Z" fill="#0083E0"/>
<path d="M43.9577 35.2549H43.6191V47.5455H43.9577V35.2549Z" fill="#0082E1"/>
<path d="M44.2961 35.2549H43.9575V47.5455H44.2961V35.2549Z" fill="#0081E2"/>
<path d="M44.3496 35.2549H44.2964V47.5455H44.3496V35.2549Z" fill="#0081E3"/>
<path d="M0.338096 32.5898H-0.000488281V48.958H0.338096V32.5898Z" fill="#04E95F"/>
<path d="M0.677451 32.5898H0.338867V48.958H0.677451V32.5898Z" fill="#04E860"/>
<path d="M1.01583 32.5898H0.677246V48.958H1.01583V32.5898Z" fill="#04E761"/>
<path d="M1.35372 32.5898H1.01514V48.958H1.35372V32.5898Z" fill="#04E762"/>
<path d="M1.69259 32.5898H1.354V48.958H1.69259V32.5898Z" fill="#04E663"/>
<path d="M2.03145 32.5898H1.69287V48.958H2.03145V32.5898Z" fill="#04E564"/>
<path d="M2.36983 32.5898H2.03125V48.958H2.36983V32.5898Z" fill="#04E465"/>
<path d="M2.70382 32.5898H2.36523V48.958H2.70382V32.5898Z" fill="#04E366"/>
<path d="M3.0422 32.5898H2.70361V48.958H3.0422V32.5898Z" fill="#04E367"/>
<path d="M3.38058 32.5898H3.04199V48.958H3.38058V32.5898Z" fill="#04E268"/>
<path d="M3.71895 32.5898H3.38037V48.958H3.71895V32.5898Z" fill="#04E169"/>
<path d="M4.05831 32.5898H3.71973V48.958H4.05831V32.5898Z" fill="#04E06A"/>
<path d="M4.3962 32.5898H4.05762V48.958H4.3962V32.5898Z" fill="#04DF6B"/>
<path d="M4.73507 32.5898H4.39648V48.958H4.73507V32.5898Z" fill="#04DF6C"/>
<path d="M5.07345 32.5898H4.73486V48.958H5.07345V32.5898Z" fill="#04DE6D"/>
<path d="M5.41231 32.5898H5.07373V48.958H5.41231V32.5898Z" fill="#04DD6E"/>
<path d="M5.7502 32.5898H5.41162V48.958H5.7502V32.5898Z" fill="#04DC6F"/>
<path d="M6.08468 32.5898H5.74609V48.958H6.08468V32.5898Z" fill="#04DB70"/>
<path d="M6.42306 32.5898H6.08447V48.958H6.42306V32.5898Z" fill="#03DB71"/>
<path d="M6.76144 32.5898H6.42285V48.958H6.76144V32.5898Z" fill="#03DA72"/>
<path d="M7.1003 32.5898H6.76172V48.958H7.1003V32.5898Z" fill="#03D973"/>
<path d="M7.43917 32.5898H7.10059V48.958H7.43917V32.5898Z" fill="#03D874"/>
<path d="M7.77706 32.5898H7.43848V48.958H7.77706V32.5898Z" fill="#03D775"/>
<path d="M8.11593 32.5898H7.77734V48.958H8.11593V32.5898Z" fill="#03D776"/>
<path d="M8.45431 32.5898H8.11572V48.958H8.45431V32.5898Z" fill="#03D677"/>
<path d="M8.79317 32.5898H8.45459V48.958H8.79317V32.5898Z" fill="#03D578"/>
<path d="M9.13204 32.5898H8.79346V48.958H9.13204V32.5898Z" fill="#03D479"/>
<path d="M9.47042 32.5898H9.13184V48.958H9.47042V32.5898Z" fill="#03D37A"/>
<path d="M9.8044 32.5898H9.46582V48.958H9.8044V32.5898Z" fill="#03D37B"/>
<path d="M10.1423 32.5898H9.80371V48.958H10.1423V32.5898Z" fill="#03D27C"/>
<path d="M10.4816 32.5898H10.1431V48.958H10.4816V32.5898Z" fill="#03D17D"/>
<path d="M10.8195 32.5898H10.481V48.958H10.8195V32.5898Z" fill="#03D07E"/>
<path d="M11.1584 32.5898H10.8198V48.958H11.1584V32.5898Z" fill="#03CF7F"/>
<path d="M11.4968 32.5898H11.1582V48.958H11.4968V32.5898Z" fill="#03CF80"/>
<path d="M11.8357 32.5898H11.4971V48.958H11.8357V32.5898Z" fill="#03CE81"/>
<path d="M12.174 32.5898H11.8354V48.958H12.174V32.5898Z" fill="#03CD82"/>
<path d="M12.5129 32.5898H12.1743V48.958H12.5129V32.5898Z" fill="#03CC83"/>
<path d="M12.8513 32.5898H12.5127V48.958H12.8513V32.5898Z" fill="#03CC84"/>
<path d="M13.1897 32.5898H12.8511V48.958H13.1897V32.5898Z" fill="#03CB85"/>
<path d="M13.5236 32.5898H13.1851V48.958H13.5236V32.5898Z" fill="#03CA86"/>
<path d="M13.8625 32.5898H13.5239V48.958H13.8625V32.5898Z" fill="#03C987"/>
<path d="M14.2009 32.5898H13.8623V48.958H14.2009V32.5898Z" fill="#03C888"/>
<path d="M14.5398 32.5898H14.2012V48.958H14.5398V32.5898Z" fill="#03C889"/>
<path d="M14.8781 32.5898H14.5396V48.958H14.8781V32.5898Z" fill="#03C78A"/>
<path d="M15.2165 32.5898H14.8779V48.958H15.2165V32.5898Z" fill="#03C68B"/>
<path d="M15.5554 32.5898H15.2168V48.958H15.5554V32.5898Z" fill="#03C58C"/>
<path d="M15.8938 32.5898H15.5552V48.958H15.8938V32.5898Z" fill="#03C48D"/>
<path d="M16.2326 32.5898H15.894V48.958H16.2326V32.5898Z" fill="#03C48E"/>
<path d="M16.5705 32.5898H16.2319V48.958H16.5705V32.5898Z" fill="#03C38F"/>
<path d="M16.905 32.5898H16.5664V48.958H16.905V32.5898Z" fill="#03C290"/>
<path d="M17.2434 32.5898H16.9048V48.958H17.2434V32.5898Z" fill="#03C191"/>
<path d="M17.5817 32.5898H17.2432V48.958H17.5817V32.5898Z" fill="#03C092"/>
<path d="M17.9206 32.5898H17.582V48.958H17.9206V32.5898Z" fill="#02C093"/>
<path d="M18.259 32.5898H17.9204V48.958H18.259V32.5898Z" fill="#02BF94"/>
<path d="M18.5974 32.5898H18.2588V48.958H18.5974V32.5898Z" fill="#02BE95"/>
<path d="M18.9362 32.5898H18.5977V48.958H18.9362V32.5898Z" fill="#02BD96"/>
<path d="M19.2746 32.5898H18.936V48.958H19.2746V32.5898Z" fill="#02BC97"/>
<path d="M19.6135 32.5898H19.2749V48.958H19.6135V32.5898Z" fill="#02BC98"/>
<path d="M19.9519 32.5898H19.6133V48.958H19.9519V32.5898Z" fill="#02BB99"/>
<path d="M20.2907 32.5898H19.9521V48.958H20.2907V32.5898Z" fill="#02BA9A"/>
<path d="M20.6242 32.5898H20.2856V48.958H20.6242V32.5898Z" fill="#02B99B"/>
<path d="M20.9631 32.5898H20.6245V48.958H20.9631V32.5898Z" fill="#02B89C"/>
<path d="M21.3015 32.5898H20.9629V48.958H21.3015V32.5898Z" fill="#02B89D"/>
<path d="M21.6399 32.5898H21.3013V48.958H21.6399V32.5898Z" fill="#02B79E"/>
<path d="M21.9782 32.5898H21.6396V48.958H21.9782V32.5898Z" fill="#02B69F"/>
<path d="M22.3171 32.5898H21.9785V48.958H22.3171V32.5898Z" fill="#02B5A0"/>
<path d="M22.656 32.5898H22.3174V48.958H22.656V32.5898Z" fill="#02B4A1"/>
<path d="M22.9943 32.5898H22.6558V48.958H22.9943V32.5898Z" fill="#02B4A2"/>
<path d="M23.3332 32.5898H22.9946V48.958H23.3332V32.5898Z" fill="#02B3A3"/>
<path d="M23.6711 32.5898H23.3325V48.958H23.6711V32.5898Z" fill="#02B2A5"/>
<path d="M24.0046 32.5898H23.666V48.958H24.0046V32.5898Z" fill="#02B1A6"/>
<path d="M24.344 32.5898H24.0054V48.958H24.344V32.5898Z" fill="#02B0A7"/>
<path d="M24.6823 32.5898H24.3438V48.958H24.6823V32.5898Z" fill="#02B0A8"/>
<path d="M25.0212 32.5898H24.6826V48.958H25.0212V32.5898Z" fill="#02AFA9"/>
<path d="M25.3596 32.5898H25.021V48.958H25.3596V32.5898Z" fill="#02AEAA"/>
<path d="M25.6984 32.5898H25.3599V48.958H25.6984V32.5898Z" fill="#02ADAB"/>
<path d="M26.0368 32.5898H25.6982V48.958H26.0368V32.5898Z" fill="#02ACAC"/>
<path d="M26.3752 32.5898H26.0366V48.958H26.3752V32.5898Z" fill="#02ACAD"/>
<path d="M26.7141 32.5898H26.3755V48.958H26.7141V32.5898Z" fill="#02ABAE"/>
<path d="M27.0525 32.5898H26.7139V48.958H27.0525V32.5898Z" fill="#02AAAF"/>
<path d="M27.3913 32.5898H27.0527V48.958H27.3913V32.5898Z" fill="#02A9B0"/>
<path d="M27.7248 32.5898H27.3862V48.958H27.7248V32.5898Z" fill="#02A8B1"/>
<path d="M28.0632 32.5898H27.7246V48.958H28.0632V32.5898Z" fill="#02A8B2"/>
<path d="M28.4025 32.5898H28.064V48.958H28.4025V32.5898Z" fill="#02A7B3"/>
<path d="M28.7404 32.5898H28.4019V48.958H28.7404V32.5898Z" fill="#02A6B4"/>
<path d="M29.0793 32.5898H28.7407V48.958H29.0793V32.5898Z" fill="#02A5B5"/>
<path d="M29.4177 32.5898H29.0791V48.958H29.4177V32.5898Z" fill="#02A4B6"/>
<path d="M29.7566 32.5898H29.418V48.958H29.7566V32.5898Z" fill="#01A4B7"/>
<path d="M30.0949 32.5898H29.7563V48.958H30.0949V32.5898Z" fill="#01A3B8"/>
<path d="M30.4333 32.5898H30.0947V48.958H30.4333V32.5898Z" fill="#01A2B9"/>
<path d="M30.7722 32.5898H30.4336V48.958H30.7722V32.5898Z" fill="#01A1BA"/>
<path d="M31.1106 32.5898H30.772V48.958H31.1106V32.5898Z" fill="#01A0BB"/>
<path d="M31.4441 32.5898H31.1055V48.958H31.4441V32.5898Z" fill="#01A0BC"/>
<path d="M31.7834 32.5898H31.4448V48.958H31.7834V32.5898Z" fill="#019FBD"/>
<path d="M32.1218 32.5898H31.7832V48.958H32.1218V32.5898Z" fill="#019EBE"/>
<path d="M32.4602 32.5898H32.1216V48.958H32.4602V32.5898Z" fill="#019DBF"/>
<path d="M32.7985 32.5898H32.46V48.958H32.7985V32.5898Z" fill="#019CC0"/>
<path d="M33.1374 32.5898H32.7988V48.958H33.1374V32.5898Z" fill="#019CC1"/>
<path d="M33.4758 32.5898H33.1372V48.958H33.4758V32.5898Z" fill="#019BC2"/>
<path d="M33.8147 32.5898H33.4761V48.958H33.8147V32.5898Z" fill="#019AC3"/>
<path d="M34.153 32.5898H33.8145V48.958H34.153V32.5898Z" fill="#0199C4"/>
<path d="M34.4914 32.5898H34.1528V48.958H34.4914V32.5898Z" fill="#0198C5"/>
<path d="M34.8259 32.5898H34.4873V48.958H34.8259V32.5898Z" fill="#0198C6"/>
<path d="M35.1643 32.5898H34.8257V48.958H35.1643V32.5898Z" fill="#0197C7"/>
<path d="M35.5022 32.5898H35.1636V48.958H35.5022V32.5898Z" fill="#0196C8"/>
<path d="M35.8415 32.5898H35.5029V48.958H35.8415V32.5898Z" fill="#0195C9"/>
<path d="M36.1799 32.5898H35.8413V48.958H36.1799V32.5898Z" fill="#0195CA"/>
<path d="M36.5183 32.5898H36.1797V48.958H36.5183V32.5898Z" fill="#0194CB"/>
<path d="M36.8571 32.5898H36.5186V48.958H36.8571V32.5898Z" fill="#0193CC"/>
<path d="M37.1955 32.5898H36.8569V48.958H37.1955V32.5898Z" fill="#0192CD"/>
<path d="M37.5344 32.5898H37.1958V48.958H37.5344V32.5898Z" fill="#0191CE"/>
<path d="M37.8728 32.5898H37.5342V48.958H37.8728V32.5898Z" fill="#0191CF"/>
<path d="M38.2116 32.5898H37.873V48.958H38.2116V32.5898Z" fill="#0190D0"/>
<path d="M38.5446 32.5898H38.2061V48.958H38.5446V32.5898Z" fill="#018FD1"/>
<path d="M38.884 32.5898H38.5454V48.958H38.884V32.5898Z" fill="#018ED2"/>
<path d="M39.2224 32.5898H38.8838V48.958H39.2224V32.5898Z" fill="#018DD3"/>
<path d="M39.5608 32.5898H39.2222V48.958H39.5608V32.5898Z" fill="#018DD4"/>
<path d="M39.8991 32.5898H39.5605V48.958H39.8991V32.5898Z" fill="#018CD5"/>
<path d="M40.238 32.5898H39.8994V48.958H40.238V32.5898Z" fill="#018BD6"/>
<path d="M40.5764 32.5898H40.2378V48.958H40.5764V32.5898Z" fill="#018AD7"/>
<path d="M40.9152 32.5898H40.5767V48.958H40.9152V32.5898Z" fill="#0189D8"/>
<path d="M41.2541 32.5898H40.9155V48.958H41.2541V32.5898Z" fill="#0089D9"/>
<path d="M41.5925 32.5898H41.2539V48.958H41.5925V32.5898Z" fill="#0088DA"/>
<path d="M41.9309 32.5898H41.5923V48.958H41.9309V32.5898Z" fill="#0087DB"/>
<path d="M42.2649 32.5898H41.9263V48.958H42.2649V32.5898Z" fill="#0086DC"/>
<path d="M42.6032 32.5898H42.2646V48.958H42.6032V32.5898Z" fill="#0085DD"/>
<path d="M42.9416 32.5898H42.603V48.958H42.9416V32.5898Z" fill="#0085DE"/>
<path d="M43.2805 32.5898H42.9419V48.958H43.2805V32.5898Z" fill="#0084DF"/>
<path d="M43.6189 32.5898H43.2803V48.958H43.6189V32.5898Z" fill="#0083E0"/>
<path d="M43.9577 32.5898H43.6191V48.958H43.9577V32.5898Z" fill="#0082E1"/>
<path d="M44.2961 32.5898H43.9575V48.958H44.2961V32.5898Z" fill="#0081E2"/>
<path d="M44.635 32.5898H44.2964V48.958H44.635V32.5898Z" fill="#0081E3"/>
<path d="M44.9733 32.5898H44.6348V48.958H44.9733V32.5898Z" fill="#0080E4"/>
<path d="M45.3122 32.5898H44.9736V48.958H45.3122V32.5898Z" fill="#007FE5"/>
<path d="M45.6457 32.5898H45.3071V48.958H45.6457V32.5898Z" fill="#007EE6"/>
<path d="M45.9841 32.5898H45.6455V48.958H45.9841V32.5898Z" fill="#007DE7"/>
<path d="M46.3234 32.5898H45.9849V48.958H46.3234V32.5898Z" fill="#007DE8"/>
<path d="M46.6613 32.5898H46.3228V48.958H46.6613V32.5898Z" fill="#007CE9"/>
<path d="M46.9997 32.5898H46.6611V48.958H46.9997V32.5898Z" fill="#007BEA"/>
</g>
</svg>
