<svg width="47" height="47" viewBox="0 0 47 47" fill="none" xmlns="http://www.w3.org/2000/svg">
<path d="M43.818 38.5045V8.50299C44.5158 8.31427 45.1521 7.95 45.6656 7.44969C46.5127 6.64215 46.9866 5.55813 47.0086 4.39073C47.0481 2.02958 45.1302 0.0590281 42.7471 0.00197432C41.6104 -0.0243582 40.5352 0.401351 39.7013 1.2001C39.1308 1.7487 38.7182 2.43334 38.5032 3.18821H8.51046C8.00137 1.34932 6.32487 0.0458618 4.39821 0.00197432C3.2703 -0.0331357 2.18627 0.401351 1.35241 1.2001C0.505383 2.01202 0.0226207 3.09604 0.000676913 4.25906C-0.0344331 6.21206 1.29975 7.98511 3.1913 8.50299V38.4957C2.51104 38.6844 1.87467 39.0443 1.3568 39.5446C0.514161 40.3522 0.0313982 41.4406 0.00945441 42.5992C-0.0344331 44.9691 1.85712 46.9441 4.24021 47.0011H4.34115C5.45589 47.0011 6.51358 46.571 7.32989 45.7942C7.90043 45.25 8.30419 44.5654 8.51046 43.8193H38.5032C39.0079 45.6494 40.6712 46.9528 42.5803 47.0011H42.6813C43.7916 47.0011 44.8581 46.571 45.6656 45.7942C46.5127 44.9823 46.9866 43.8939 47.0086 42.7309C47.0437 40.7647 45.7358 39.0355 43.818 38.5045ZM41.2067 2.68789C41.6236 2.28412 42.1634 2.06469 42.7252 2.06469H42.7734C43.5766 2.08224 44.3271 2.53428 44.7352 3.24526C44.9283 3.58758 45.0293 3.97379 45.0205 4.35562C45.0161 4.73305 44.9195 5.09731 44.7396 5.4133C44.6255 5.61958 44.4851 5.80829 44.3183 5.9619C44.1603 6.11112 44.0067 6.22522 43.8399 6.31739C43.5107 6.49733 43.1377 6.59388 42.7603 6.59388H42.7076C42.3346 6.5851 41.9879 6.49294 41.6719 6.31739C40.9258 5.91362 40.4737 5.13681 40.4913 4.29417C40.5045 3.68852 40.759 3.11799 41.2067 2.68789ZM3.16935 6.31739C2.42327 5.91362 1.97123 5.13681 1.98878 4.29417C2.00195 3.68852 2.25649 3.11799 2.70415 2.68789C3.12108 2.28412 3.66089 2.06469 4.22265 2.06469H4.27093C5.07407 2.08224 5.82455 2.53428 6.2327 3.24526C6.42581 3.58758 6.52675 3.97379 6.51797 4.35562C6.51358 4.73305 6.41703 5.09731 6.23709 5.4133C6.12298 5.61958 5.98254 5.80829 5.81577 5.9619C5.65778 6.11112 5.50417 6.22522 5.3374 6.31739C5.00824 6.49733 4.6352 6.59388 4.25776 6.59388H4.2051C3.83206 6.5851 3.48535 6.49294 3.16935 6.31739ZM6.23709 43.8324C6.12298 44.0387 5.98254 44.2274 5.81577 44.381C5.65778 44.5302 5.50417 44.6444 5.3374 44.7365C5.00824 44.9165 4.6352 45.013 4.25776 45.013H4.2051C3.83206 45.0042 3.48535 44.9121 3.16935 44.7365C2.42327 44.3328 1.97123 43.5559 1.98878 42.7133C2.00195 42.1077 2.25649 41.5371 2.70415 41.107C3.12108 40.7033 3.66089 40.4838 4.22265 40.4838H4.27093C5.07407 40.5014 5.82455 40.9534 6.2327 41.6644C6.42581 42.0067 6.52675 42.3929 6.51797 42.7747C6.51358 43.1522 6.41703 43.5164 6.23709 43.8324ZM38.5032 41.5371H8.51924C8.11109 40.0669 6.96124 38.9126 5.47345 38.5045V8.50299C6.16248 8.31866 6.80324 7.95439 7.32111 7.44969C7.89165 6.90548 8.2998 6.22083 8.50608 5.47036H38.5032C38.907 6.94937 40.0568 8.10361 41.5402 8.50299V38.4957C40.8556 38.6757 40.228 39.0399 39.7013 39.5446C39.122 40.0976 38.7138 40.7866 38.5032 41.5371ZM44.7396 43.8324C44.6255 44.0387 44.4851 44.2274 44.3183 44.381C44.1603 44.5302 44.0067 44.6444 43.8399 44.7365C43.5107 44.9165 43.1377 45.013 42.7603 45.013H42.7076C42.3346 45.0042 41.9879 44.9121 41.6719 44.7365C40.9258 44.3328 40.4737 43.5559 40.4913 42.7133C40.5045 42.1077 40.759 41.5371 41.2067 41.107C41.6236 40.7033 42.1634 40.4838 42.7252 40.4838H42.7734C43.5766 40.5014 44.3271 40.9534 44.7352 41.6644C44.9283 42.0067 45.0293 42.3929 45.0205 42.7747C45.0161 43.1522 44.9195 43.5164 44.7396 43.8324Z" fill="url(#paint0_linear_714_1082)"/>
<path d="M37.7481 16.0778C37.7481 16.5211 37.6735 17.0609 37.0679 17.3154C36.4622 17.5744 36.0233 17.2408 35.7074 16.9248C35.4177 16.6308 35.1236 16.3367 34.834 16.0515L34.7023 15.9198C34.1845 15.4063 33.7192 14.9411 33.2584 14.4671C32.5562 13.743 31.718 13.3919 30.7173 13.4138C30.0546 13.4226 29.3788 13.4226 28.7248 13.4182H28.6151C28.1763 13.4182 27.7374 13.4138 27.2985 13.4182C26.7236 13.4226 26.5744 13.5674 26.5744 14.138C26.57 20.6026 26.57 27.1769 26.5744 33.5319V34.3877H27.6408C29.1637 34.3833 30.6603 34.3833 32.1569 34.3877C32.35 34.3877 32.5782 34.3921 32.802 34.4228C33.355 34.4974 33.7061 34.866 33.7192 35.3839C33.7412 36.4197 33.7412 37.5256 33.7236 38.7589C33.7149 39.268 33.3725 39.6454 32.8327 39.7376C32.6045 39.7771 32.3763 39.7814 32.2271 39.7814H15.5191C14.3517 39.7814 13.9962 39.4216 13.9962 38.241V35.9018C13.9962 34.7388 14.3473 34.3877 15.4928 34.3877C16.7348 34.3833 17.9724 34.3833 19.2144 34.3877H21.163C21.1674 34.3087 21.1718 34.2384 21.1718 34.1682V14.2784C21.1718 13.5235 21.0665 13.4182 20.3072 13.4182H19.1618C18.4639 13.4226 17.7398 13.427 17.0244 13.4138C17.0025 13.4138 16.9805 13.4094 16.9586 13.4094C15.9843 13.4094 15.1724 13.7561 14.4834 14.4671C14.0181 14.9499 13.5354 15.4326 13.0395 15.9198C12.7103 16.249 12.368 16.5869 12.0388 16.9204C11.7228 17.2408 11.284 17.5744 10.6783 17.3154C10.0727 17.0609 9.99805 16.5211 9.99805 16.0778C10.0024 14.8709 10.0024 13.6508 10.0024 12.4571V9.38494C10.0024 8.44136 10.4018 8.0376 11.3322 8.0376H36.4139C37.3444 8.0376 37.7437 8.44136 37.7437 9.38494V11.9041C37.7437 13.2734 37.7437 14.6866 37.7481 16.0778Z" fill="url(#paint1_linear_714_1082)"/>
<defs>
<linearGradient id="paint0_linear_714_1082" x1="0.000676913" y1="23.5037" x2="47.0086" y2="23.5037" gradientUnits="userSpaceOnUse">
<stop stop-color="#04E95F"/>
<stop offset="1" stop-color="#007BEA"/>
</linearGradient>
<linearGradient id="paint1_linear_714_1082" x1="9.99805" y1="23.9117" x2="37.7481" y2="23.9117" gradientUnits="userSpaceOnUse">
<stop stop-color="#04E95F"/>
<stop offset="1" stop-color="#007BEA"/>
</linearGradient>
</defs>
</svg>
