<svg width="47" height="39" viewBox="0 0 47 39" fill="none" xmlns="http://www.w3.org/2000/svg">
<path d="M3.47802 31.336C1.66161 31.5828 0.0574601 30.2362 0.00676001 28.4346C-0.00540801 28.0074 0.00338 27.5795 0.00338 27.1523C0.002704 19.1633 0.00540801 11.175 0 3.18667C0 2.13887 0.365716 1.27697 1.19517 0.628005C1.69676 0.235248 2.27542 0.035828 2.91221 0.00878801C3.03592 0.00338 3.15963 0.00540801 3.28334 0.00540801C16.6161 0.00473201 29.9489 0.00743601 43.2816 0C44.2828 0 45.1386 0.285948 45.8106 1.04713C46.3344 1.64065 46.5562 2.34437 46.5569 3.1265C46.5569 4.80299 46.5569 6.47947 46.5569 8.15595C46.5569 14.8281 46.5575 21.5002 46.5562 28.1717C46.5562 29.5919 45.8471 30.6958 44.6093 31.1589C44.2889 31.2786 43.9319 31.3563 43.5912 31.3583C40.6324 31.3739 37.6729 31.3678 34.714 31.3671C34.6376 31.3671 34.5605 31.3556 34.4517 31.3462C34.4443 31.215 34.4321 31.096 34.4321 30.9771C34.4308 29.0647 34.4395 27.1516 34.4233 25.2392C34.4206 24.9018 34.5038 24.8011 34.8505 24.8031C37.9331 24.8167 41.0163 24.8113 44.0989 24.8113C44.2321 24.8113 44.3646 24.8113 44.5329 24.8113C44.5424 24.6605 44.5559 24.5422 44.5559 24.4239C44.5566 17.3583 44.5572 10.2921 44.5559 3.22655C44.5559 2.39169 44.1719 2.00569 43.3404 2.00569C29.9631 2.00502 16.585 2.00502 3.20762 2.00569C2.39169 2.00569 2.00231 2.39102 2.00231 3.19951C2.00096 10.2766 2.00164 17.3536 2.00164 24.4307C2.00164 24.5409 2.00164 24.651 2.00164 24.8119C2.44104 24.8119 2.84258 24.8146 3.24413 24.8106C3.4111 24.8092 3.52061 24.8376 3.51994 25.0465C3.51318 27.1164 3.5125 29.1863 3.50912 31.2569C3.50912 31.2772 3.49357 31.2982 3.47735 31.3367L3.47802 31.336Z" fill="url(#paint0_linear_714_1896)"/>
<path d="M13.6451 16.1782C13.0063 16.1782 12.4127 16.185 11.8192 16.1681C11.7591 16.1667 11.6529 16.0261 11.6529 15.9497C11.6448 14.6559 11.6279 13.362 11.6597 12.0688C11.6773 11.3414 12.2579 10.7635 12.9799 10.6621C13.157 10.6371 13.3389 10.6364 13.5187 10.6364C19.5493 10.635 25.5792 10.635 31.6098 10.6357C32.8422 10.6357 33.3972 11.1941 33.3972 12.4339C33.3972 20.6128 33.3958 28.7924 33.3999 36.9713C33.3999 37.5446 33.2741 38.0638 32.8875 38.5005C32.6292 38.7918 32.3122 38.9581 31.9127 38.9581C27.3672 38.9568 22.8225 38.9574 18.2771 38.9568C18.2115 38.9568 18.1459 38.9466 18.0824 38.9412C18.077 38.9081 18.0628 38.879 18.0715 38.8675C18.6644 38.1009 18.7915 37.2161 18.7415 36.2818C18.7232 35.9452 18.7543 35.6058 18.7334 35.2698C18.7165 34.9994 18.8165 34.9285 19.0781 34.9291C21.317 34.9379 23.5559 34.9339 25.7949 34.9339C27.5389 34.9339 29.2823 34.9271 31.0264 34.9406C31.3252 34.9427 31.4036 34.8555 31.403 34.56C31.3948 27.3708 31.3955 20.1822 31.4016 12.9929C31.4016 12.7225 31.3387 12.6238 31.0487 12.6238C25.3669 12.6319 19.6858 12.6313 14.004 12.6238C13.7296 12.6238 13.6343 12.6948 13.6383 12.9807C13.6539 14.0258 13.6444 15.0716 13.6444 16.1776L13.6451 16.1782ZM21.8112 36.6611C21.8159 37.1708 22.2134 37.596 22.6866 37.596C23.176 37.596 23.5755 37.1545 23.5613 36.6286C23.5478 36.1142 23.147 35.7011 22.6711 35.7113C22.1985 35.7214 21.8064 36.1541 21.8112 36.6611Z" fill="url(#paint1_linear_714_1896)"/>
<path d="M17.6951 28.0485C17.6951 30.9513 17.6694 33.854 17.7073 36.7561C17.7235 37.9925 16.8231 38.9916 15.4988 38.9707C12.5859 38.9247 9.67096 38.9571 6.7574 38.9558C5.37092 38.9558 4.56107 38.1446 4.56107 36.7486C4.55972 30.9546 4.55972 25.1606 4.56107 19.3666C4.56107 18.0194 5.35402 17.2251 6.69994 17.2237C9.67029 17.221 12.64 17.221 15.6103 17.2237C16.9089 17.2251 17.6937 18.0099 17.6944 19.3058C17.6964 22.22 17.6951 25.1336 17.6951 28.0478V28.0485ZM15.6962 26.8324C15.6962 24.4143 15.6921 21.997 15.7016 19.5789C15.7029 19.3004 15.6238 19.2166 15.3419 19.2172C12.5304 19.2267 9.71896 19.2267 6.90815 19.2172C6.61814 19.2159 6.5546 19.3159 6.5546 19.5863C6.56136 24.4103 6.56204 29.2349 6.55325 34.0588C6.55325 34.3549 6.63234 34.4401 6.93113 34.4387C9.71964 34.4279 12.5088 34.4266 15.2973 34.4394C15.6326 34.4408 15.7036 34.3319 15.7022 34.0176C15.6901 31.6225 15.6955 29.2268 15.6955 26.8317L15.6962 26.8324ZM11.9173 36.6418C11.9119 36.1348 11.5137 35.7137 11.0399 35.7117C10.5741 35.7103 10.1753 36.1416 10.1732 36.6499C10.1705 37.1793 10.5775 37.6105 11.0642 37.5957C11.5381 37.5815 11.9227 37.1515 11.9173 36.6412V36.6418Z" fill="url(#paint2_linear_714_1896)"/>
<path d="M34.4297 35.4758V38.1095C34.4297 38.2907 34.5852 38.4374 34.7772 38.4374H38.6114C38.8034 38.4374 38.9589 38.2907 38.9589 38.1095V37.8722C38.9589 37.6911 38.8034 37.5444 38.6114 37.5444H37.9645C36.7545 37.5444 35.7736 36.6183 35.7736 35.4758C35.7736 35.2946 35.6181 35.1479 35.4261 35.1479H34.7772C34.5852 35.1479 34.4297 35.2946 34.4297 35.4758Z" fill="url(#paint3_linear_714_1896)"/>
<defs>
<linearGradient id="paint0_linear_714_1896" x1="0" y1="15.6846" x2="46.5575" y2="15.6846" gradientUnits="userSpaceOnUse">
<stop stop-color="#04E95F"/>
<stop offset="1" stop-color="#007BEA"/>
</linearGradient>
<linearGradient id="paint1_linear_714_1896" x1="11.6408" y1="24.7966" x2="33.3999" y2="24.7966" gradientUnits="userSpaceOnUse">
<stop stop-color="#04E95F"/>
<stop offset="1" stop-color="#007BEA"/>
</linearGradient>
<linearGradient id="paint2_linear_714_1896" x1="4.55904" y1="28.0972" x2="17.7073" y2="28.0972" gradientUnits="userSpaceOnUse">
<stop stop-color="#04E95F"/>
<stop offset="1" stop-color="#007BEA"/>
</linearGradient>
<linearGradient id="paint3_linear_714_1896" x1="34.4297" y1="36.7927" x2="38.9589" y2="36.7927" gradientUnits="userSpaceOnUse">
<stop stop-color="#04E95F"/>
<stop offset="1" stop-color="#007BEA"/>
</linearGradient>
</defs>
</svg>
