<svg width="48" height="39" viewBox="0 0 48 39" fill="none" xmlns="http://www.w3.org/2000/svg">
<path d="M42.4911 16.039C42.4979 16.5685 42.3008 17.0608 41.9337 17.4274C41.5803 17.7838 41.1079 17.9807 40.6049 17.9807H40.5913C39.5547 17.9739 38.7254 17.1524 38.705 16.1102C38.6948 15.5875 38.8851 15.0986 39.242 14.7354C39.5988 14.3722 40.0815 14.1753 40.6015 14.1753H40.6049C41.6517 14.1753 42.4775 14.9968 42.4911 16.039Z" fill="url(#paint0_linear_714_1888)"/>
<path d="M47.1372 17.9544L47.0319 17.7711C46.3351 16.5253 45.6146 15.2421 44.8533 13.9963C43.7283 12.1563 42.2261 10.7747 40.3908 9.88871C39.0483 9.24373 37.6787 8.40864 36.2002 7.34272C33.6104 5.46886 30.1234 3.0926 26.1469 1.35793C23.9479 0.397242 21.9053 -0.0440634 19.9137 0.00346188C19.6078 0.0102512 18.6731 0.0340139 18.1192 0.726524C17.5652 1.42582 17.7555 2.34917 17.8167 2.6513C18.1463 4.2366 19.2577 5.20408 20.0666 5.79475C21.5416 6.87086 23.1118 7.70934 24.7296 8.27964C26.762 8.99931 28.8352 9.69861 30.8405 10.3741C31.3129 10.5337 31.7853 10.6932 32.2577 10.8528C31.6596 11.3688 31.0512 11.9017 30.4632 12.4483C30.2219 12.3397 29.9806 12.2378 29.7393 12.1326C29.0969 11.8508 28.4886 11.586 27.9142 11.2737C24.1247 9.20978 20.2603 8.46635 16.4198 9.06381C10.4279 9.99395 6.37326 13.1917 4.36463 18.5655C3.48096 20.9248 3.22266 23.2297 3.59312 25.4227C1.95155 25.5381 0.384751 26.1661 0.0414823 28.4236C-0.24061 30.2736 0.942137 32.0423 2.79443 32.5345C3.78685 32.7993 5.4794 32.8672 6.74031 30.922C7.58319 31.6485 8.48385 32.2222 9.46607 32.6669C10.0676 32.9385 10.6862 33.1659 11.3184 33.356L11.2776 33.4069C10.8799 33.9161 10.4687 34.4457 10.105 35.0228C9.51365 35.9563 9.66319 36.9917 10.5027 37.7928C11.162 38.4208 11.9199 38.577 12.5657 38.577C12.9463 38.577 13.2862 38.5227 13.5445 38.4819C16.4232 38.0338 18.442 36.1226 20.0666 34.5883L21.212 33.502C21.732 33.4307 22.2656 33.3526 22.8264 33.2677C26.361 32.7314 29.549 32.3003 32.8049 32.4496C33.3521 32.4768 33.8721 32.4259 34.3785 32.3783L34.4397 32.3715C35.3777 32.2867 35.8536 31.8488 36.0847 31.4957C36.3158 31.1393 36.5333 30.5248 36.2342 29.6151C35.9589 28.7766 35.4389 28.1146 34.698 27.6496C33.7736 27.0725 32.7641 26.7296 31.697 26.6244C32.4753 25.9624 33.2739 25.2801 34.0353 24.5672C34.2528 24.3635 34.3887 24.333 34.5926 24.3432C35.7754 24.3907 36.9581 24.4314 38.1409 24.4688C38.8682 24.4959 39.5989 24.5197 40.3296 24.5469C42.3553 24.6215 43.9934 24.3771 45.4923 23.7831C46.8008 23.2637 47.5961 22.2589 47.732 20.9519C47.8408 19.8656 47.6436 18.8574 47.1372 17.9544ZM5.49979 28.8615C4.7045 30.9356 3.76985 30.6878 3.32123 30.5656C2.46135 30.3381 1.93116 29.5676 2.05691 28.7325C2.16227 28.04 2.25403 27.4357 4.21848 27.4357C4.39181 27.4357 4.57874 27.4425 4.77927 27.4493L6.01639 27.5104L5.49979 28.8615ZM13.2318 36.4689C12.4671 36.5877 12.1578 36.5538 11.9097 36.3195C11.8384 36.2516 11.8044 36.2041 11.7908 36.1804C11.7976 36.1634 11.8078 36.1396 11.8282 36.1091C12.1001 35.6779 12.4127 35.2672 12.7424 34.8429C13.9659 35.0805 15.1963 35.1212 16.379 35.0805C15.407 35.7866 14.4044 36.2856 13.2318 36.4689ZM45.703 20.7414C45.6622 21.1149 45.5195 21.5799 44.7411 21.8922C43.5142 22.3777 42.1343 22.5746 40.4044 22.5101C39.6737 22.4829 38.9396 22.4591 38.2089 22.4354C37.0295 22.3946 35.8536 22.3539 34.6776 22.3064C33.8993 22.2724 33.2332 22.527 32.6418 23.0804C31.8295 23.8408 30.956 24.5808 30.1132 25.2971L29.8447 25.5245C29.8447 25.5245 29.8277 25.5347 29.8209 25.5415C28.5905 25.6026 27.3398 25.6467 26.1231 25.6909C26.1741 25.4838 26.2284 25.2801 26.2794 25.0764C26.6601 23.6167 26.6601 22.1638 26.2862 20.755C25.6167 18.2498 23.863 16.6 21.0794 15.8497C18.962 15.2794 17.1709 15.4729 15.6041 16.437C15.5531 16.471 15.4988 16.5083 15.4206 16.5626L12.1408 18.8744L16.0052 18.484C16.2125 18.4636 16.4062 18.4433 16.5965 18.4195C16.9772 18.3754 17.3069 18.338 17.6331 18.3244C19.2747 18.243 20.6002 18.6877 21.7014 19.6891C23.0269 20.8942 23.4517 22.3471 23.0065 24.1259C22.8501 24.7505 22.6462 25.365 22.4287 26.0133C22.3267 26.3155 22.2282 26.6176 22.133 26.9197L21.5145 28.9022H23.1118C23.2682 28.9056 23.4041 28.9056 23.5401 28.9022C24.281 28.8716 25.0253 28.8411 25.7662 28.8105C27.4418 28.7393 29.1785 28.6646 30.8779 28.6306C31.8703 28.6103 32.7879 28.8615 33.6172 29.3775C33.9537 29.5879 34.1678 29.8663 34.2936 30.2499C34.3071 30.2838 34.3139 30.311 34.3207 30.3381C34.3004 30.3381 34.2766 30.3415 34.2528 30.3449L34.1882 30.3517C33.7328 30.3925 33.3011 30.4332 32.8967 30.4128C29.4538 30.2567 26.1605 30.7014 22.5205 31.2547C20.5118 31.5602 18.8227 31.7877 17.1233 31.9167C14.6491 32.1068 12.355 31.7333 10.3021 30.81C9.15679 30.294 8.14398 29.5506 7.19914 28.5322L6.08437 27.3339L6.06058 27.3916L5.76149 25.8979C5.71391 25.6671 5.66633 25.4363 5.62554 25.2088C5.27887 23.3146 5.49299 21.3728 6.27469 19.2783C8.03182 14.5801 11.4509 11.8984 16.7325 11.0768C20.1652 10.5405 23.5061 11.1923 26.9354 13.0593C27.5913 13.4192 28.2711 13.7145 28.927 13.9996C29.2669 14.1456 29.6068 14.295 29.9432 14.4511C30.5482 14.7329 31.1192 14.6277 31.6426 14.1354C32.3971 13.4226 33.2094 12.7233 33.9911 12.0477L34.195 11.8746C34.3038 11.7795 34.4499 11.6777 34.6198 11.5657C34.7218 11.4978 34.8305 11.4265 34.9427 11.345L36.4755 10.2621L34.5519 9.49493C34.4193 9.44062 34.3004 9.39309 34.1814 9.35236C33.2875 9.05023 32.3903 8.74811 31.493 8.44598C29.4946 7.77044 27.4282 7.07454 25.4094 6.36166C23.9785 5.85586 22.585 5.11242 21.2697 4.15174C20.3963 3.51015 19.9612 2.93984 19.8151 2.24054C19.7981 2.16247 19.7879 2.10136 19.7845 2.05044C19.8321 2.04705 19.8899 2.04026 19.9612 2.04026C21.6538 2.00292 23.4109 2.38651 25.3312 3.22499C29.1275 4.88159 32.4956 7.17638 35.0039 8.99252C36.5809 10.1331 38.0525 11.0259 39.5038 11.7252C40.9822 12.4347 42.1955 13.5549 43.1132 15.0588C43.8541 16.2707 44.5644 17.5369 45.2544 18.7657L45.3563 18.9491C45.6588 19.4854 45.771 20.0727 45.703 20.7414Z" fill="url(#paint1_linear_714_1888)"/>
<defs>
<linearGradient id="paint0_linear_714_1888" x1="38.705" y1="16.0797" x2="42.4911" y2="16.0797" gradientUnits="userSpaceOnUse">
<stop stop-color="#04E95F"/>
<stop offset="1" stop-color="#007BEA"/>
</linearGradient>
<linearGradient id="paint1_linear_714_1888" x1="0.000697959" y1="19.2885" x2="47.7626" y2="19.2885" gradientUnits="userSpaceOnUse">
<stop stop-color="#04E95F"/>
<stop offset="1" stop-color="#007BEA"/>
</linearGradient>
</defs>
</svg>
