<svg width="40" height="44" viewBox="0 0 40 44" fill="none" xmlns="http://www.w3.org/2000/svg">
<path d="M19.7241 4.4C17.6898 4.4 15.7388 5.21124 14.3003 6.65527C12.8618 8.0993 12.0536 10.0578 12.0536 12.1C12.0536 14.1422 12.8618 16.1007 14.3003 17.5447C15.7388 18.9887 17.6898 19.8 19.7241 19.8C21.7585 19.8 23.7095 18.9887 25.148 17.5447C26.5865 16.1007 27.3946 14.1422 27.3946 12.1C27.3946 10.0578 26.5865 8.0993 25.148 6.65527C23.7095 5.21124 21.7585 4.4 19.7241 4.4ZM7.67049 12.1C7.67049 8.89087 8.94042 5.81319 11.2009 3.544C13.4614 1.27482 16.5273 0 19.7241 0C22.9209 0 25.9868 1.27482 28.2473 3.544C30.5078 5.81319 31.7778 8.89087 31.7778 12.1C31.7778 15.3091 30.5078 18.3868 28.2473 20.656C25.9868 22.9252 22.9209 24.2 19.7241 24.2C16.5273 24.2 13.4614 22.9252 11.2009 20.656C8.94042 18.3868 7.67049 15.3091 7.67049 12.1ZM0 37.4C0 34.4826 1.15448 31.6847 3.20948 29.6218C5.26447 27.5589 8.05164 26.4 10.9578 26.4H28.4904C31.3966 26.4 34.1838 27.5589 36.2388 29.6218C38.2938 31.6847 39.4482 34.4826 39.4482 37.4V44H0V37.4ZM10.9578 30.8C9.21412 30.8 7.54182 31.4953 6.30883 32.7331C5.07583 33.9708 4.38314 35.6495 4.38314 37.4V39.6H35.0651V37.4C35.0651 35.6495 34.3724 33.9708 33.1394 32.7331C31.9064 31.4953 30.2341 30.8 28.4904 30.8H10.9578Z" fill="url(#paint0_linear_714_1076)"/>
<defs>
<linearGradient id="paint0_linear_714_1076" x1="0" y1="19.7241" x2="39.4482" y2="19.7241" gradientUnits="userSpaceOnUse">
<stop stop-color="#04E95F"/>
<stop offset="1" stop-color="#007BEA"/>
</linearGradient>
</defs>
</svg>
