<svg width="29" height="48" viewBox="0 0 29 48" fill="none" xmlns="http://www.w3.org/2000/svg">
<path d="M24 15.6H28.8C28.8 8.7912 22.188 5.6856 16.8 4.9704V0H12V4.9704C6.612 5.6856 0 8.7912 0 15.6C0 22.0944 6.3984 25.4712 12 26.232V38.16C8.5248 37.5576 4.8 35.7024 4.8 32.4H0C0 38.6136 5.82 42.2856 12 43.0464V48H16.8V43.032C22.188 42.3168 28.8 39.2088 28.8 32.4C28.8 25.5912 22.188 22.4856 16.8 21.7704V9.84C19.992 10.4136 24 12.0984 24 15.6ZM4.8 15.6C4.8 12.0984 8.808 10.4136 12 9.84V21.3576C8.7096 20.7504 4.8 18.9528 4.8 15.6ZM24 32.4C24 35.9016 19.992 37.5864 16.8 38.16V26.64C19.992 27.2136 24 28.8984 24 32.4Z" fill="url(#paint0_linear_922_329)"/>
<defs>
<linearGradient id="paint0_linear_922_329" x1="0" y1="24" x2="28.8" y2="24" gradientUnits="userSpaceOnUse">
<stop stop-color="#04E95F"/>
<stop offset="1" stop-color="#007BEA"/>
</linearGradient>
</defs>
</svg>
