<svg width="24" height="48" viewBox="0 0 24 48" fill="none" xmlns="http://www.w3.org/2000/svg">
<path d="M11.7236 47.2H11.7255C12.2661 47.2013 12.6846 47.0256 13.0348 46.6718C13.3856 46.3175 13.5637 45.8895 13.5637 45.3333V42.4V41.7087L14.2476 41.6085C16.8395 41.2284 18.9779 40.2646 20.6961 38.7357C22.329 37.2827 23.2 35.1278 23.2 32.1333V32.1328C23.2016 29.7808 22.4816 27.7264 21.036 25.9375C19.6006 24.1611 17.4583 22.8241 14.5372 21.9685C11.2734 21.0328 8.88907 20.1186 7.46436 19.2072C5.93333 18.2278 5.1154 16.8278 5.1154 15.0667C5.1154 13.5367 5.73069 12.2406 6.91278 11.2273C8.12319 10.1897 9.81312 9.73334 11.8556 9.73334H11.8581C13.0714 9.73712 14.1421 9.91401 15.0407 10.2995C15.9168 10.6752 16.6816 11.2193 17.3295 11.9261C17.8328 12.4751 18.3462 12.8261 18.8648 13.0175C19.3421 13.1936 19.7666 13.1799 20.1841 12.9992L20.1952 12.9943L20.1953 12.9944C20.7518 12.7635 21.07 12.4169 21.2306 11.9431C21.3976 11.4506 21.3381 11.0721 21.096 10.719L21.0884 10.7079L21.0885 10.7078C20.3571 9.60118 19.4218 8.66578 18.2754 7.89988C17.1521 7.14938 15.8121 6.64111 14.2377 6.39002L13.5637 6.28253V5.60001V2.66667V2.66295H13.5637C13.5663 2.10886 13.3897 1.68417 13.0394 1.33283L13.6001 0.773844L13.0394 1.33282C12.6863 0.978595 12.2645 0.8013 11.7217 0.800007C11.1811 0.798719 10.7626 0.974417 10.4124 1.32819C10.0616 1.68248 9.8835 2.1105 9.8835 2.66667V5.60001V6.31344L9.17473 6.39479C7.43509 6.59446 5.68834 7.41666 3.93095 8.93816C2.29073 10.3582 1.43522 12.3635 1.43522 15.0667C1.43522 17.2999 2.08488 19.1451 3.35826 20.6516C4.61769 22.1415 7.03569 23.5175 10.7774 24.7041L10.7854 24.7066L10.7854 24.7067C12.5616 25.2907 14.0338 25.8492 15.1934 26.3834C16.3386 26.911 17.2362 27.4402 17.8158 27.9852C18.9723 29.0726 19.5198 30.5314 19.5198 32.2667V32.2675C19.5178 34.2224 18.793 35.7761 17.276 36.7704C15.8682 37.6931 14.1798 38.1332 12.2525 38.1333C12.2522 38.1333 12.2519 38.1333 12.2516 38.1333V37.3333L11.7236 47.2ZM11.7236 47.2C11.18 47.2 10.7615 47.0231 10.4133 46.6701M11.7236 47.2L10.4133 46.6701M10.4133 46.6701C10.0633 46.3153 9.88496 45.8871 9.8835 45.3322L10.4133 46.6701Z" fill="url(#paint0_linear_765_3377)" stroke="url(#paint1_linear_765_3377)" stroke-width="1.6"/>
<defs>
<linearGradient id="paint0_linear_765_3377" x1="0" y1="24" x2="24" y2="24" gradientUnits="userSpaceOnUse">
<stop stop-color="#04E95F"/>
<stop offset="1" stop-color="#007BEA"/>
</linearGradient>
<linearGradient id="paint1_linear_765_3377" x1="0" y1="24" x2="24" y2="24" gradientUnits="userSpaceOnUse">
<stop stop-color="#04E95F"/>
<stop offset="1" stop-color="#007BEA"/>
</linearGradient>
</defs>
</svg>
