<svg width="53" height="31" viewBox="0 0 53 31" fill="none" xmlns="http://www.w3.org/2000/svg">
<path d="M52.0511 1.89485L52.0511 1.89486L52.0542 1.90188C52.1454 2.10717 52.1936 2.32626 52.197 2.54719V15.2502C52.197 15.7003 52.0109 16.1391 51.6681 16.468C51.3242 16.798 50.8509 16.9889 50.3508 16.9889C49.8506 16.9889 49.3773 16.798 49.0334 16.468C48.6906 16.1391 48.5046 15.7003 48.5046 15.2502V8.6672V6.78184L47.1451 8.08817L30.4815 24.1009L30.4796 24.1027C30.3094 24.2673 30.1051 24.3997 29.8777 24.4906C29.6502 24.5815 29.4052 24.6287 29.1569 24.6287C28.9087 24.6287 28.6636 24.5815 28.4361 24.4906C28.2087 24.3997 28.0044 24.2673 27.8343 24.1027L27.8328 24.1013L19.1168 15.7137L18.5603 15.1781L18.0035 15.7134L3.98905 29.1844L3.98723 29.1861C3.81705 29.3507 3.61278 29.4831 3.38538 29.574C3.15792 29.6649 2.91286 29.7121 2.66459 29.7121C2.41633 29.7121 2.17126 29.6649 1.94381 29.574C1.7164 29.4831 1.51213 29.3507 1.34195 29.1861L1.34197 29.1861L1.33721 29.1816C1.16562 29.0183 1.03132 28.8259 0.940325 28.6163C0.849371 28.4069 0.80303 28.1835 0.80303 27.9587C0.80303 27.7339 0.849371 27.5105 0.940324 27.3011C1.03132 27.0915 1.16562 26.8991 1.33721 26.7358L1.33958 26.7336L17.235 11.4834L17.2373 11.4811C17.4075 11.3165 17.6118 11.1841 17.8392 11.0932C18.0667 11.0023 18.3117 10.9551 18.56 10.9551C18.8082 10.9551 19.0533 11.0023 19.2808 11.0932C19.5082 11.1841 19.7124 11.3165 19.8826 11.4811L19.8841 11.4825L28.6001 19.8701L29.1561 20.4052L29.7129 19.871L44.5221 5.66287L45.9631 4.28037H43.9661H37.1046C36.6045 4.28037 36.1312 4.08945 35.7873 3.75949C35.4445 3.43061 35.2584 2.99184 35.2584 2.5417C35.2584 2.09157 35.4445 1.65279 35.7873 1.32392C36.1312 0.993955 36.6045 0.80303 37.1046 0.80303H50.3457C50.59 0.806395 50.8305 0.85542 51.0535 0.946623L51.0535 0.946653L51.0602 0.949334C51.5169 1.13126 51.8694 1.47503 52.0511 1.89485Z" fill="url(#paint0_linear_765_3376)" stroke="url(#paint1_linear_765_3376)" stroke-width="1.60606"/>
<defs>
<linearGradient id="paint0_linear_765_3376" x1="1.02822e-07" y1="9.63636" x2="53" y2="9.63636" gradientUnits="userSpaceOnUse">
<stop stop-color="#04E95F"/>
<stop offset="1" stop-color="#007BEA"/>
</linearGradient>
<linearGradient id="paint1_linear_765_3376" x1="-3.64253e-07" y1="8.83333" x2="53" y2="8.83334" gradientUnits="userSpaceOnUse">
<stop stop-color="#04E95F"/>
<stop offset="1" stop-color="#007BEA"/>
</linearGradient>
</defs>
</svg>
