<svg width="57" height="33" viewBox="0 0 57 33" fill="none" xmlns="http://www.w3.org/2000/svg">
<path d="M49.5 30.6429H35.3571V23.5714H31.35C28.7571 29.2286 22.8643 33 16.5 33C7.30714 33 0 25.6929 0 16.5C0 7.30714 7.30714 0 16.5 0C22.8643 0 28.7571 3.77143 31.35 9.42857H56.5714V23.5714H49.5V30.6429ZM40.0714 25.9286H44.7857V18.8571H51.8571V14.1429H28.05L27.5786 12.4929C25.9286 7.77857 21.45 4.71429 16.5 4.71429C9.9 4.71429 4.71429 9.9 4.71429 16.5C4.71429 23.1 9.9 28.2857 16.5 28.2857C21.45 28.2857 25.9286 25.2214 27.5786 20.5071L28.05 18.8571H40.0714V25.9286ZM16.5 23.5714C12.4929 23.5714 9.42857 20.5071 9.42857 16.5C9.42857 12.4929 12.4929 9.42857 16.5 9.42857C20.5071 9.42857 23.5714 12.4929 23.5714 16.5C23.5714 20.5071 20.5071 23.5714 16.5 23.5714ZM16.5 14.1429C15.0857 14.1429 14.1429 15.0857 14.1429 16.5C14.1429 17.9143 15.0857 18.8571 16.5 18.8571C17.9143 18.8571 18.8571 17.9143 18.8571 16.5C18.8571 15.0857 17.9143 14.1429 16.5 14.1429Z" fill="url(#paint0_linear_765_2450)"/>
<defs>
<linearGradient id="paint0_linear_765_2450" x1="-2.80993e-07" y1="22" x2="56.5714" y2="22" gradientUnits="userSpaceOnUse">
<stop stop-color="#04E95F"/>
<stop offset="1" stop-color="#007BEA"/>
</linearGradient>
</defs>
</svg>
